<?xml version="1.0"?>
<!DOCTYPE svg PUBLIC "-//W3C//DTD SVG 1.0//EN" "http://www.w3.org/TR/2001/REC-SVG-20010904/DTD/svg10.dtd">
<svg xmlns="http://www.w3.org/2000/svg" xmlns:xlink="http://www.w3.org/1999/xlink" xmlns:jfreesvg="http://www.jfree.org/jfreesvg/svg" width="2000" height="2000" text-rendering="auto" shape-rendering="auto" color-interpolation="linearRGB" color-interpolation-filters="linearRGB" color-rendering="optimizeQuality">
<defs></defs>
<rect x="0" y="0" width="2000" height="2000" style="fill: rgb(255,255,255); fill-opacity: 1.0" />
<g style="stroke-width: 2.0;stroke: rgb(0,0,0);stroke-opacity: 1.0;stroke-linecap: square;; fill: none" ><path d="M 1001.5 1000.5 C 1001.5 1001.05 1001.05 1001.5 1000.5 1001.5 C 999.95 1001.5 999.5 1001.05 999.5 1000.5 C 999.5 999.95 999.95 999.5 1000.5 999.5 C 1001.05 999.5 1001.5 999.95 1001.5 1000.5 Z "/></g>
<g style="stroke-width: 2.0;stroke: rgb(0,0,0);stroke-opacity: 1.0;stroke-linecap: square;; fill: none" ><path d="M 1006.5 1000.5 C 1006.5 1003.81 1003.81 1006.5 1000.5 1006.5 C 997.19 1006.5 994.5 1003.81 994.5 1000.5 C 994.5 997.19 997.19 994.5 1000.5 994.5 C 1003.81 994.5 1006.5 997.19 1006.5 1000.5 Z "/></g>
<g style="stroke-width: 2.0;stroke: rgb(0,0,0);stroke-opacity: 1.0;stroke-linecap: square;; fill: none" ><path d="M 1011.5 1000.5 C 1011.5 1006.58 1006.58 1011.5 1000.5 1011.5 C 994.42 1011.5 989.5 1006.58 989.5 1000.5 C 989.5 994.42 994.42 989.5 1000.5 989.5 C 1006.58 989.5 1011.5 994.42 1011.5 1000.5 Z "/></g>
<g style="stroke-width: 2.0;stroke: rgb(0,0,0);stroke-opacity: 1.0;stroke-linecap: square;; fill: none" ><path d="M 1016.5 1000.5 C 1016.5 1009.34 1009.34 1016.5 1000.5 1016.5 C 991.66 1016.5 984.5 1009.34 984.5 1000.5 C 984.5 991.66 991.66 984.5 1000.5 984.5 C 1009.34 984.5 1016.5 991.66 1016.5 1000.5 Z "/></g>
<g style="stroke-width: 2.0;stroke: rgb(0,0,0);stroke-opacity: 1.0;stroke-linecap: square;; fill: none" ><path d="M 1021.5 1000.5 C 1021.5 1012.1 1012.1 1021.5 1000.5 1021.5 C 988.9 1021.5 979.5 1012.1 979.5 1000.5 C 979.5 988.9 988.9 979.5 1000.5 979.5 C 1012.1 979.5 1021.5 988.9 1021.5 1000.5 Z "/></g>
<g style="stroke-width: 2.0;stroke: rgb(0,0,0);stroke-opacity: 1.0;stroke-linecap: square;; fill: none" ><path d="M 1026.5 1000.5 C 1026.5 1014.86 1014.86 1026.5 1000.5 1026.5 C 986.14 1026.5 974.5 1014.86 974.5 1000.5 C 974.5 986.14 986.14 974.5 1000.5 974.5 C 1014.86 974.5 1026.5 986.14 1026.5 1000.5 Z "/></g>
<g style="stroke-width: 2.0;stroke: rgb(0,0,0);stroke-opacity: 1.0;stroke-linecap: square;; fill: none" ><path d="M 1031.5 1000.5 C 1031.5 1017.62 1017.62 1031.5 1000.5 1031.5 C 983.38 1031.5 969.5 1017.62 969.5 1000.5 C 969.5 983.38 983.38 969.5 1000.5 969.5 C 1017.62 969.5 1031.5 983.38 1031.5 1000.5 Z "/></g>
<g style="stroke-width: 2.0;stroke: rgb(0,0,0);stroke-opacity: 1.0;stroke-linecap: square;; fill: none" ><path d="M 1036.5 1000.5 C 1036.5 1020.38 1020.38 1036.5 1000.5 1036.5 C 980.62 1036.5 964.5 1020.38 964.5 1000.5 C 964.5 980.62 980.62 964.5 1000.5 964.5 C 1020.38 964.5 1036.5 980.62 1036.5 1000.5 Z "/></g>
<g style="stroke-width: 2.0;stroke: rgb(0,0,0);stroke-opacity: 1.0;stroke-linecap: square;; fill: none" ><path d="M 1041.5 1000.5 C 1041.5 1023.14 1023.14 1041.5 1000.5 1041.5 C 977.86 1041.5 959.5 1023.14 959.5 1000.5 C 959.5 977.86 977.86 959.5 1000.5 959.5 C 1023.14 959.5 1041.5 977.86 1041.5 1000.5 Z "/></g>
<g style="stroke-width: 2.0;stroke: rgb(0,0,0);stroke-opacity: 1.0;stroke-linecap: square;; fill: none" ><path d="M 1046.5 1000.5 C 1046.5 1025.91 1025.91 1046.5 1000.5 1046.5 C 975.09 1046.5 954.5 1025.91 954.5 1000.5 C 954.5 975.09 975.09 954.5 1000.5 954.5 C 1025.91 954.5 1046.5 975.09 1046.5 1000.5 Z "/></g>
<g style="stroke-width: 2.0;stroke: rgb(0,0,0);stroke-opacity: 1.0;stroke-linecap: square;; fill: none" ><path d="M 1051.5 1000.5 C 1051.5 1028.67 1028.67 1051.5 1000.5 1051.5 C 972.33 1051.5 949.5 1028.67 949.5 1000.5 C 949.5 972.33 972.33 949.5 1000.5 949.5 C 1028.67 949.5 1051.5 972.33 1051.5 1000.5 Z "/></g>
<g style="stroke-width: 2.0;stroke: rgb(0,0,0);stroke-opacity: 1.0;stroke-linecap: square;; fill: none" ><path d="M 1056.5 1000.5 C 1056.5 1031.43 1031.43 1056.5 1000.5 1056.5 C 969.57 1056.5 944.5 1031.43 944.5 1000.5 C 944.5 969.57 969.57 944.5 1000.5 944.5 C 1031.43 944.5 1056.5 969.57 1056.5 1000.5 Z "/></g>
<g style="stroke-width: 2.0;stroke: rgb(0,0,0);stroke-opacity: 1.0;stroke-linecap: square;; fill: none" ><path d="M 1061.5 1000.5 C 1061.5 1034.19 1034.19 1061.5 1000.5 1061.5 C 966.81 1061.5 939.5 1034.19 939.5 1000.5 C 939.5 966.81 966.81 939.5 1000.5 939.5 C 1034.19 939.5 1061.5 966.81 1061.5 1000.5 Z "/></g>
<g style="stroke-width: 2.0;stroke: rgb(0,0,0);stroke-opacity: 1.0;stroke-linecap: square;; fill: none" ><path d="M 1066.5 1000.5 C 1066.5 1036.95 1036.95 1066.5 1000.5 1066.5 C 964.05 1066.5 934.5 1036.95 934.5 1000.5 C 934.5 964.05 964.05 934.5 1000.5 934.5 C 1036.95 934.5 1066.5 964.05 1066.5 1000.5 Z "/></g>
<g style="stroke-width: 2.0;stroke: rgb(0,0,0);stroke-opacity: 1.0;stroke-linecap: square;; fill: none" ><path d="M 1071.5 1000.5 C 1071.5 1039.71 1039.71 1071.5 1000.5 1071.5 C 961.29 1071.5 929.5 1039.71 929.5 1000.5 C 929.5 961.29 961.29 929.5 1000.5 929.5 C 1039.71 929.5 1071.5 961.29 1071.5 1000.5 Z "/></g>
<g style="stroke-width: 2.0;stroke: rgb(0,0,0);stroke-opacity: 1.0;stroke-linecap: square;; fill: none" ><path d="M 1076.5 1000.5 C 1076.5 1042.47 1042.47 1076.5 1000.5 1076.5 C 958.53 1076.5 924.5 1042.47 924.5 1000.5 C 924.5 958.53 958.53 924.5 1000.5 924.5 C 1042.47 924.5 1076.5 958.53 1076.5 1000.5 Z "/></g>
<g style="stroke-width: 2.0;stroke: rgb(0,0,0);stroke-opacity: 1.0;stroke-linecap: square;; fill: none" ><path d="M 1081.5 1000.5 C 1081.5 1045.24 1045.24 1081.5 1000.5 1081.5 C 955.76 1081.5 919.5 1045.24 919.5 1000.5 C 919.5 955.76 955.76 919.5 1000.5 919.5 C 1045.24 919.5 1081.5 955.76 1081.5 1000.5 Z "/></g>
<g style="stroke-width: 2.0;stroke: rgb(0,0,0);stroke-opacity: 1.0;stroke-linecap: square;; fill: none" ><path d="M 1086.5 1000.5 C 1086.5 1048 1048 1086.5 1000.5 1086.5 C 953 1086.5 914.5 1048 914.5 1000.5 C 914.5 953 953 914.5 1000.5 914.5 C 1048 914.5 1086.5 953 1086.5 1000.5 Z "/></g>
<g style="stroke-width: 2.0;stroke: rgb(0,0,0);stroke-opacity: 1.0;stroke-linecap: square;; fill: none" ><path d="M 1091.5 1000.5 C 1091.5 1050.76 1050.76 1091.5 1000.5 1091.5 C 950.24 1091.5 909.5 1050.76 909.5 1000.5 C 909.5 950.24 950.24 909.5 1000.5 909.5 C 1050.76 909.5 1091.5 950.24 1091.5 1000.5 Z "/></g>
<g style="stroke-width: 2.0;stroke: rgb(0,0,0);stroke-opacity: 1.0;stroke-linecap: square;; fill: none" ><path d="M 1096.5 1000.5 C 1096.5 1053.52 1053.52 1096.5 1000.5 1096.5 C 947.48 1096.5 904.5 1053.52 904.5 1000.5 C 904.5 947.48 947.48 904.5 1000.5 904.5 C 1053.52 904.5 1096.5 947.48 1096.5 1000.5 Z "/></g>
<g style="stroke-width: 2.0;stroke: rgb(0,0,0);stroke-opacity: 1.0;stroke-linecap: square;; fill: none" ><path d="M 1101.5 1000.5 C 1101.5 1056.28 1056.28 1101.5 1000.5 1101.5 C 944.72 1101.5 899.5 1056.28 899.5 1000.5 C 899.5 944.72 944.72 899.5 1000.5 899.5 C 1056.28 899.5 1101.5 944.72 1101.5 1000.5 Z "/></g>
<g style="stroke-width: 2.0;stroke: rgb(0,0,0);stroke-opacity: 1.0;stroke-linecap: square;; fill: none" ><path d="M 1106.5 1000.5 C 1106.5 1059.04 1059.04 1106.5 1000.5 1106.5 C 941.96 1106.5 894.5 1059.04 894.5 1000.5 C 894.5 941.96 941.96 894.5 1000.5 894.5 C 1059.04 894.5 1106.5 941.96 1106.5 1000.5 Z "/></g>
<g style="stroke-width: 2.0;stroke: rgb(0,0,0);stroke-opacity: 1.0;stroke-linecap: square;; fill: none" ><path d="M 1111.5 1000.5 C 1111.5 1061.8 1061.8 1111.5 1000.5 1111.5 C 939.2 1111.5 889.5 1061.8 889.5 1000.5 C 889.5 939.2 939.2 889.5 1000.5 889.5 C 1061.8 889.5 1111.5 939.2 1111.5 1000.5 Z "/></g>
<g style="stroke-width: 2.0;stroke: rgb(0,0,0);stroke-opacity: 1.0;stroke-linecap: square;; fill: none" ><path d="M 1116.5 1000.5 C 1116.5 1064.57 1064.57 1116.5 1000.5 1116.5 C 936.43 1116.5 884.5 1064.57 884.5 1000.5 C 884.5 936.43 936.43 884.5 1000.5 884.5 C 1064.57 884.5 1116.5 936.43 1116.5 1000.5 Z "/></g>
<g style="stroke-width: 2.0;stroke: rgb(0,0,0);stroke-opacity: 1.0;stroke-linecap: square;; fill: none" ><path d="M 1121.5 1000.5 C 1121.5 1067.33 1067.33 1121.5 1000.5 1121.5 C 933.67 1121.5 879.5 1067.33 879.5 1000.5 C 879.5 933.67 933.67 879.5 1000.5 879.5 C 1067.33 879.5 1121.5 933.67 1121.5 1000.5 Z "/></g>
<g style="stroke-width: 2.0;stroke: rgb(0,0,0);stroke-opacity: 1.0;stroke-linecap: square;; fill: none" ><path d="M 1126.5 1000.5 C 1126.5 1070.09 1070.09 1126.5 1000.5 1126.5 C 930.91 1126.5 874.5 1070.09 874.5 1000.5 C 874.5 930.91 930.91 874.5 1000.5 874.5 C 1070.09 874.5 1126.5 930.91 1126.5 1000.5 Z "/></g>
<g style="stroke-width: 2.0;stroke: rgb(0,0,0);stroke-opacity: 1.0;stroke-linecap: square;; fill: none" ><path d="M 1131.5 1000.5 C 1131.5 1072.85 1072.85 1131.5 1000.5 1131.5 C 928.15 1131.5 869.5 1072.85 869.5 1000.5 C 869.5 928.15 928.15 869.5 1000.5 869.5 C 1072.85 869.5 1131.5 928.15 1131.5 1000.5 Z "/></g>
<g style="stroke-width: 2.0;stroke: rgb(0,0,0);stroke-opacity: 1.0;stroke-linecap: square;; fill: none" ><path d="M 1136.5 1000.5 C 1136.5 1075.61 1075.61 1136.5 1000.5 1136.5 C 925.39 1136.5 864.5 1075.61 864.5 1000.5 C 864.5 925.39 925.39 864.5 1000.5 864.5 C 1075.61 864.5 1136.5 925.39 1136.5 1000.5 Z "/></g>
<g style="stroke-width: 2.0;stroke: rgb(0,0,0);stroke-opacity: 1.0;stroke-linecap: square;; fill: none" ><path d="M 1141.5 1000.5 C 1141.5 1078.37 1078.37 1141.5 1000.5 1141.5 C 922.63 1141.5 859.5 1078.37 859.5 1000.5 C 859.5 922.63 922.63 859.5 1000.5 859.5 C 1078.37 859.5 1141.5 922.63 1141.5 1000.5 Z "/></g>
<g style="stroke-width: 2.0;stroke: rgb(0,0,0);stroke-opacity: 1.0;stroke-linecap: square;; fill: none" ><path d="M 1146.5 1000.5 C 1146.5 1081.13 1081.13 1146.5 1000.5 1146.5 C 919.87 1146.5 854.5 1081.13 854.5 1000.5 C 854.5 919.87 919.87 854.5 1000.5 854.5 C 1081.13 854.5 1146.5 919.87 1146.5 1000.5 Z "/></g>
<g style="stroke-width: 2.0;stroke: rgb(0,0,0);stroke-opacity: 1.0;stroke-linecap: square;; fill: none" ><path d="M 1151.5 1000.5 C 1151.5 1083.9 1083.9 1151.5 1000.5 1151.5 C 917.1 1151.5 849.5 1083.9 849.5 1000.5 C 849.5 917.1 917.1 849.5 1000.5 849.5 C 1083.9 849.5 1151.5 917.1 1151.5 1000.5 Z "/></g>
<g style="stroke-width: 2.0;stroke: rgb(0,0,0);stroke-opacity: 1.0;stroke-linecap: square;; fill: none" ><path d="M 1156.5 1000.5 C 1156.5 1086.66 1086.66 1156.5 1000.5 1156.5 C 914.34 1156.5 844.5 1086.66 844.5 1000.5 C 844.5 914.34 914.34 844.5 1000.5 844.5 C 1086.66 844.5 1156.5 914.34 1156.5 1000.5 Z "/></g>
<g style="stroke-width: 2.0;stroke: rgb(0,0,0);stroke-opacity: 1.0;stroke-linecap: square;; fill: none" ><path d="M 1161.5 1000.5 C 1161.5 1089.42 1089.42 1161.5 1000.5 1161.5 C 911.58 1161.5 839.5 1089.42 839.5 1000.5 C 839.5 911.58 911.58 839.5 1000.5 839.5 C 1089.42 839.5 1161.5 911.58 1161.5 1000.5 Z "/></g>
<g style="stroke-width: 2.0;stroke: rgb(0,0,0);stroke-opacity: 1.0;stroke-linecap: square;; fill: none" ><path d="M 1166.5 1000.5 C 1166.5 1092.18 1092.18 1166.5 1000.5 1166.5 C 908.82 1166.5 834.5 1092.18 834.5 1000.5 C 834.5 908.82 908.82 834.5 1000.5 834.5 C 1092.18 834.5 1166.5 908.82 1166.5 1000.5 Z "/></g>
<g style="stroke-width: 2.0;stroke: rgb(0,0,0);stroke-opacity: 1.0;stroke-linecap: square;; fill: none" ><path d="M 1171.5 1000.5 C 1171.5 1094.94 1094.94 1171.5 1000.5 1171.5 C 906.06 1171.5 829.5 1094.94 829.5 1000.5 C 829.5 906.06 906.06 829.5 1000.5 829.5 C 1094.94 829.5 1171.5 906.06 1171.5 1000.5 Z "/></g>
<g style="stroke-width: 2.0;stroke: rgb(0,0,0);stroke-opacity: 1.0;stroke-linecap: square;; fill: none" ><path d="M 1176.5 1000.5 C 1176.5 1097.7 1097.7 1176.5 1000.5 1176.5 C 903.3 1176.5 824.5 1097.7 824.5 1000.5 C 824.5 903.3 903.3 824.5 1000.5 824.5 C 1097.7 824.5 1176.5 903.3 1176.5 1000.5 Z "/></g>
<g style="stroke-width: 2.0;stroke: rgb(0,0,0);stroke-opacity: 1.0;stroke-linecap: square;; fill: none" ><path d="M 1181.5 1000.5 C 1181.5 1100.46 1100.46 1181.5 1000.5 1181.5 C 900.54 1181.5 819.5 1100.46 819.5 1000.5 C 819.5 900.54 900.54 819.5 1000.5 819.5 C 1100.46 819.5 1181.5 900.54 1181.5 1000.5 Z "/></g>
<g style="stroke-width: 2.0;stroke: rgb(0,0,0);stroke-opacity: 1.0;stroke-linecap: square;; fill: none" ><path d="M 1186.5 1000.5 C 1186.5 1103.22 1103.22 1186.5 1000.5 1186.5 C 897.78 1186.5 814.5 1103.22 814.5 1000.5 C 814.5 897.78 897.78 814.5 1000.5 814.5 C 1103.22 814.5 1186.5 897.78 1186.5 1000.5 Z "/></g>
<g style="stroke-width: 2.0;stroke: rgb(0,0,0);stroke-opacity: 1.0;stroke-linecap: square;; fill: none" ><path d="M 1191.5 1000.5 C 1191.5 1105.99 1105.99 1191.5 1000.5 1191.5 C 895.01 1191.5 809.5 1105.99 809.5 1000.5 C 809.5 895.01 895.01 809.5 1000.5 809.5 C 1105.99 809.5 1191.5 895.01 1191.5 1000.5 Z "/></g>
<g style="stroke-width: 2.0;stroke: rgb(0,0,0);stroke-opacity: 1.0;stroke-linecap: square;; fill: none" ><path d="M 1196.5 1000.5 C 1196.5 1108.75 1108.75 1196.5 1000.5 1196.5 C 892.25 1196.5 804.5 1108.75 804.5 1000.5 C 804.5 892.25 892.25 804.5 1000.5 804.5 C 1108.75 804.5 1196.5 892.25 1196.5 1000.5 Z "/></g>
<g style="stroke-width: 2.0;stroke: rgb(0,0,0);stroke-opacity: 1.0;stroke-linecap: square;; fill: none" ><path d="M 1201.5 1000.5 C 1201.5 1111.51 1111.51 1201.5 1000.5 1201.5 C 889.49 1201.5 799.5 1111.51 799.5 1000.5 C 799.5 889.49 889.49 799.5 1000.5 799.5 C 1111.51 799.5 1201.5 889.49 1201.5 1000.5 Z "/></g>
<g style="stroke-width: 2.0;stroke: rgb(0,0,0);stroke-opacity: 1.0;stroke-linecap: square;; fill: none" ><path d="M 1206.5 1000.5 C 1206.5 1114.27 1114.27 1206.5 1000.5 1206.5 C 886.73 1206.5 794.5 1114.27 794.5 1000.5 C 794.5 886.73 886.73 794.5 1000.5 794.5 C 1114.27 794.5 1206.5 886.73 1206.5 1000.5 Z "/></g>
<g style="stroke-width: 2.0;stroke: rgb(0,0,0);stroke-opacity: 1.0;stroke-linecap: square;; fill: none" ><path d="M 1211.5 1000.5 C 1211.5 1117.03 1117.03 1211.5 1000.5 1211.5 C 883.97 1211.5 789.5 1117.03 789.5 1000.5 C 789.5 883.97 883.97 789.5 1000.5 789.5 C 1117.03 789.5 1211.5 883.97 1211.5 1000.5 Z "/></g>
<g style="stroke-width: 2.0;stroke: rgb(0,0,0);stroke-opacity: 1.0;stroke-linecap: square;; fill: none" ><path d="M 1216.5 1000.5 C 1216.5 1119.79 1119.79 1216.5 1000.5 1216.5 C 881.21 1216.5 784.5 1119.79 784.5 1000.5 C 784.5 881.21 881.21 784.5 1000.5 784.5 C 1119.79 784.5 1216.5 881.21 1216.5 1000.5 Z "/></g>
<g style="stroke-width: 2.0;stroke: rgb(0,0,0);stroke-opacity: 1.0;stroke-linecap: square;; fill: none" ><path d="M 1221.5 1000.5 C 1221.5 1122.55 1122.55 1221.5 1000.5 1221.5 C 878.45 1221.5 779.5 1122.55 779.5 1000.5 C 779.5 878.45 878.45 779.5 1000.5 779.5 C 1122.55 779.5 1221.5 878.45 1221.5 1000.5 Z "/></g>
<g style="stroke-width: 2.0;stroke: rgb(0,0,0);stroke-opacity: 1.0;stroke-linecap: square;; fill: none" ><path d="M 1226.5 1000.5 C 1226.5 1125.32 1125.32 1226.5 1000.5 1226.5 C 875.68 1226.5 774.5 1125.32 774.5 1000.5 C 774.5 875.68 875.68 774.5 1000.5 774.5 C 1125.32 774.5 1226.5 875.68 1226.5 1000.5 Z "/></g>
<g style="stroke-width: 2.0;stroke: rgb(0,0,0);stroke-opacity: 1.0;stroke-linecap: square;; fill: none" ><path d="M 1231.5 1000.5 C 1231.5 1128.08 1128.08 1231.5 1000.5 1231.5 C 872.92 1231.5 769.5 1128.08 769.5 1000.5 C 769.5 872.92 872.92 769.5 1000.5 769.5 C 1128.08 769.5 1231.5 872.92 1231.5 1000.5 Z "/></g>
<g style="stroke-width: 2.0;stroke: rgb(0,0,0);stroke-opacity: 1.0;stroke-linecap: square;; fill: none" ><path d="M 1236.5 1000.5 C 1236.5 1130.84 1130.84 1236.5 1000.5 1236.5 C 870.16 1236.5 764.5 1130.84 764.5 1000.5 C 764.5 870.16 870.16 764.5 1000.5 764.5 C 1130.84 764.5 1236.5 870.16 1236.5 1000.5 Z "/></g>
<g style="stroke-width: 2.0;stroke: rgb(0,0,0);stroke-opacity: 1.0;stroke-linecap: square;; fill: none" ><path d="M 1241.5 1000.5 C 1241.5 1133.6 1133.6 1241.5 1000.5 1241.5 C 867.4 1241.5 759.5 1133.6 759.5 1000.5 C 759.5 867.4 867.4 759.5 1000.5 759.5 C 1133.6 759.5 1241.5 867.4 1241.5 1000.5 Z "/></g>
<g style="stroke-width: 2.0;stroke: rgb(0,0,0);stroke-opacity: 1.0;stroke-linecap: square;; fill: none" ><path d="M 1246.5 1000.5 C 1246.5 1136.36 1136.36 1246.5 1000.5 1246.5 C 864.64 1246.5 754.5 1136.36 754.5 1000.5 C 754.5 864.64 864.64 754.5 1000.5 754.5 C 1136.36 754.5 1246.5 864.64 1246.5 1000.5 Z "/></g>
<g style="stroke-width: 2.0;stroke: rgb(0,0,0);stroke-opacity: 1.0;stroke-linecap: square;; fill: none" ><path d="M 1251.5 1000.5 C 1251.5 1139.12 1139.12 1251.5 1000.5 1251.5 C 861.88 1251.5 749.5 1139.12 749.5 1000.5 C 749.5 861.88 861.88 749.5 1000.5 749.5 C 1139.12 749.5 1251.5 861.88 1251.5 1000.5 Z "/></g>
<g style="stroke-width: 2.0;stroke: rgb(0,0,0);stroke-opacity: 1.0;stroke-linecap: square;; fill: none" ><path d="M 1256.5 1000.5 C 1256.5 1141.88 1141.88 1256.5 1000.5 1256.5 C 859.12 1256.5 744.5 1141.88 744.5 1000.5 C 744.5 859.12 859.12 744.5 1000.5 744.5 C 1141.88 744.5 1256.5 859.12 1256.5 1000.5 Z "/></g>
<g style="stroke-width: 2.0;stroke: rgb(0,0,0);stroke-opacity: 1.0;stroke-linecap: square;; fill: none" ><path d="M 1261.5 1000.5 C 1261.5 1144.65 1144.65 1261.5 1000.5 1261.5 C 856.35 1261.5 739.5 1144.65 739.5 1000.5 C 739.5 856.35 856.35 739.5 1000.5 739.5 C 1144.65 739.5 1261.5 856.35 1261.5 1000.5 Z "/></g>
<g style="stroke-width: 2.0;stroke: rgb(0,0,0);stroke-opacity: 1.0;stroke-linecap: square;; fill: none" ><path d="M 1266.5 1000.5 C 1266.5 1147.41 1147.41 1266.5 1000.5 1266.5 C 853.59 1266.5 734.5 1147.41 734.5 1000.5 C 734.5 853.59 853.59 734.5 1000.5 734.5 C 1147.41 734.5 1266.5 853.59 1266.5 1000.5 Z "/></g>
<g style="stroke-width: 2.0;stroke: rgb(0,0,0);stroke-opacity: 1.0;stroke-linecap: square;; fill: none" ><path d="M 1271.5 1000.5 C 1271.5 1150.17 1150.17 1271.5 1000.5 1271.5 C 850.83 1271.5 729.5 1150.17 729.5 1000.5 C 729.5 850.83 850.83 729.5 1000.5 729.5 C 1150.17 729.5 1271.5 850.83 1271.5 1000.5 Z "/></g>
<g style="stroke-width: 2.0;stroke: rgb(0,0,0);stroke-opacity: 1.0;stroke-linecap: square;; fill: none" ><path d="M 1276.5 1000.5 C 1276.5 1152.93 1152.93 1276.5 1000.5 1276.5 C 848.07 1276.5 724.5 1152.93 724.5 1000.5 C 724.5 848.07 848.07 724.5 1000.5 724.5 C 1152.93 724.5 1276.5 848.07 1276.5 1000.5 Z "/></g>
<g style="stroke-width: 2.0;stroke: rgb(0,0,0);stroke-opacity: 1.0;stroke-linecap: square;; fill: none" ><path d="M 1281.5 1000.5 C 1281.5 1155.69 1155.69 1281.5 1000.5 1281.5 C 845.31 1281.5 719.5 1155.69 719.5 1000.5 C 719.5 845.31 845.31 719.5 1000.5 719.5 C 1155.69 719.5 1281.5 845.31 1281.5 1000.5 Z "/></g>
<g style="stroke-width: 2.0;stroke: rgb(0,0,0);stroke-opacity: 1.0;stroke-linecap: square;; fill: none" ><path d="M 1286.5 1000.5 C 1286.5 1158.45 1158.45 1286.5 1000.5 1286.5 C 842.55 1286.5 714.5 1158.45 714.5 1000.5 C 714.5 842.55 842.55 714.5 1000.5 714.5 C 1158.45 714.5 1286.5 842.55 1286.5 1000.5 Z "/></g>
<g style="stroke-width: 2.0;stroke: rgb(0,0,0);stroke-opacity: 1.0;stroke-linecap: square;; fill: none" ><path d="M 1291.5 1000.5 C 1291.5 1161.21 1161.21 1291.5 1000.5 1291.5 C 839.79 1291.5 709.5 1161.21 709.5 1000.5 C 709.5 839.79 839.79 709.5 1000.5 709.5 C 1161.21 709.5 1291.5 839.79 1291.5 1000.5 Z "/></g>
<g style="stroke-width: 2.0;stroke: rgb(0,0,0);stroke-opacity: 1.0;stroke-linecap: square;; fill: none" ><path d="M 1296.5 1000.5 C 1296.5 1163.98 1163.98 1296.5 1000.5 1296.5 C 837.02 1296.5 704.5 1163.98 704.5 1000.5 C 704.5 837.02 837.02 704.5 1000.5 704.5 C 1163.98 704.5 1296.5 837.02 1296.5 1000.5 Z "/></g>
<g style="stroke-width: 2.0;stroke: rgb(0,0,0);stroke-opacity: 1.0;stroke-linecap: square;; fill: none" ><path d="M 1301.5 1000.5 C 1301.5 1166.74 1166.74 1301.5 1000.5 1301.5 C 834.26 1301.5 699.5 1166.74 699.5 1000.5 C 699.5 834.26 834.26 699.5 1000.5 699.5 C 1166.74 699.5 1301.5 834.26 1301.5 1000.5 Z "/></g>
<g style="stroke-width: 2.0;stroke: rgb(0,0,0);stroke-opacity: 1.0;stroke-linecap: square;; fill: none" ><path d="M 1306.5 1000.5 C 1306.5 1169.5 1169.5 1306.5 1000.5 1306.5 C 831.5 1306.5 694.5 1169.5 694.5 1000.5 C 694.5 831.5 831.5 694.5 1000.5 694.5 C 1169.5 694.5 1306.5 831.5 1306.5 1000.5 Z "/></g>
<g style="stroke-width: 2.0;stroke: rgb(0,0,0);stroke-opacity: 1.0;stroke-linecap: square;; fill: none" ><path d="M 1311.5 1000.5 C 1311.5 1172.26 1172.26 1311.5 1000.5 1311.5 C 828.74 1311.5 689.5 1172.26 689.5 1000.5 C 689.5 828.74 828.74 689.5 1000.5 689.5 C 1172.26 689.5 1311.5 828.74 1311.5 1000.5 Z "/></g>
<g style="stroke-width: 2.0;stroke: rgb(0,0,0);stroke-opacity: 1.0;stroke-linecap: square;; fill: none" ><path d="M 1316.5 1000.5 C 1316.5 1175.02 1175.02 1316.5 1000.5 1316.5 C 825.98 1316.5 684.5 1175.02 684.5 1000.5 C 684.5 825.98 825.98 684.5 1000.5 684.5 C 1175.02 684.5 1316.5 825.98 1316.5 1000.5 Z "/></g>
<g style="stroke-width: 2.0;stroke: rgb(0,0,0);stroke-opacity: 1.0;stroke-linecap: square;; fill: none" ><path d="M 1321.5 1000.5 C 1321.5 1177.78 1177.78 1321.5 1000.5 1321.5 C 823.22 1321.5 679.5 1177.78 679.5 1000.5 C 679.5 823.22 823.22 679.5 1000.5 679.5 C 1177.78 679.5 1321.5 823.22 1321.5 1000.5 Z "/></g>
<g style="stroke-width: 2.0;stroke: rgb(0,0,0);stroke-opacity: 1.0;stroke-linecap: square;; fill: none" ><path d="M 1326.5 1000.5 C 1326.5 1180.54 1180.54 1326.5 1000.5 1326.5 C 820.46 1326.5 674.5 1180.54 674.5 1000.5 C 674.5 820.46 820.46 674.5 1000.5 674.5 C 1180.54 674.5 1326.5 820.46 1326.5 1000.5 Z "/></g>
<g style="stroke-width: 2.0;stroke: rgb(0,0,0);stroke-opacity: 1.0;stroke-linecap: square;; fill: none" ><path d="M 1331.5 1000.5 C 1331.5 1183.31 1183.31 1331.5 1000.5 1331.5 C 817.69 1331.5 669.5 1183.31 669.5 1000.5 C 669.5 817.69 817.69 669.5 1000.5 669.5 C 1183.31 669.5 1331.5 817.69 1331.5 1000.5 Z "/></g>
<g style="stroke-width: 2.0;stroke: rgb(0,0,0);stroke-opacity: 1.0;stroke-linecap: square;; fill: none" ><path d="M 1336.5 1000.5 C 1336.5 1186.07 1186.07 1336.5 1000.5 1336.5 C 814.93 1336.5 664.5 1186.07 664.5 1000.5 C 664.5 814.93 814.93 664.5 1000.5 664.5 C 1186.07 664.5 1336.5 814.93 1336.5 1000.5 Z "/></g>
<g style="stroke-width: 2.0;stroke: rgb(0,0,0);stroke-opacity: 1.0;stroke-linecap: square;; fill: none" ><path d="M 1341.5 1000.5 C 1341.5 1188.83 1188.83 1341.5 1000.5 1341.5 C 812.17 1341.5 659.5 1188.83 659.5 1000.5 C 659.5 812.17 812.17 659.5 1000.5 659.5 C 1188.83 659.5 1341.5 812.17 1341.5 1000.5 Z "/></g>
<g style="stroke-width: 2.0;stroke: rgb(0,0,0);stroke-opacity: 1.0;stroke-linecap: square;; fill: none" ><path d="M 1346.5 1000.5 C 1346.5 1191.59 1191.59 1346.5 1000.5 1346.5 C 809.41 1346.5 654.5 1191.59 654.5 1000.5 C 654.5 809.41 809.41 654.5 1000.5 654.5 C 1191.59 654.5 1346.5 809.41 1346.5 1000.5 Z "/></g>
<g style="stroke-width: 2.0;stroke: rgb(0,0,0);stroke-opacity: 1.0;stroke-linecap: square;; fill: none" ><path d="M 1351.5 1000.5 C 1351.5 1194.35 1194.35 1351.5 1000.5 1351.5 C 806.65 1351.5 649.5 1194.35 649.5 1000.5 C 649.5 806.65 806.65 649.5 1000.5 649.5 C 1194.35 649.5 1351.5 806.65 1351.5 1000.5 Z "/></g>
<g style="stroke-width: 2.0;stroke: rgb(0,0,0);stroke-opacity: 1.0;stroke-linecap: square;; fill: none" ><path d="M 1356.5 1000.5 C 1356.5 1197.11 1197.11 1356.5 1000.5 1356.5 C 803.89 1356.5 644.5 1197.11 644.5 1000.5 C 644.5 803.89 803.89 644.5 1000.5 644.5 C 1197.11 644.5 1356.5 803.89 1356.5 1000.5 Z "/></g>
<g style="stroke-width: 2.0;stroke: rgb(0,0,0);stroke-opacity: 1.0;stroke-linecap: square;; fill: none" ><path d="M 1361.5 1000.5 C 1361.5 1199.87 1199.87 1361.5 1000.5 1361.5 C 801.13 1361.5 639.5 1199.87 639.5 1000.5 C 639.5 801.13 801.13 639.5 1000.5 639.5 C 1199.87 639.5 1361.5 801.13 1361.5 1000.5 Z "/></g>
<g style="stroke-width: 2.0;stroke: rgb(0,0,0);stroke-opacity: 1.0;stroke-linecap: square;; fill: none" ><path d="M 1366.5 1000.5 C 1366.5 1202.64 1202.64 1366.5 1000.5 1366.5 C 798.36 1366.5 634.5 1202.64 634.5 1000.5 C 634.5 798.36 798.36 634.5 1000.5 634.5 C 1202.64 634.5 1366.5 798.36 1366.5 1000.5 Z "/></g>
<g style="stroke-width: 2.0;stroke: rgb(0,0,0);stroke-opacity: 1.0;stroke-linecap: square;; fill: none" ><path d="M 1371.5 1000.5 C 1371.5 1205.4 1205.4 1371.5 1000.5 1371.5 C 795.6 1371.5 629.5 1205.4 629.5 1000.5 C 629.5 795.6 795.6 629.5 1000.5 629.5 C 1205.4 629.5 1371.5 795.6 1371.5 1000.5 Z "/></g>
<g style="stroke-width: 2.0;stroke: rgb(0,0,0);stroke-opacity: 1.0;stroke-linecap: square;; fill: none" ><path d="M 1376.5 1000.5 C 1376.5 1208.16 1208.16 1376.5 1000.5 1376.5 C 792.84 1376.5 624.5 1208.16 624.5 1000.5 C 624.5 792.84 792.84 624.5 1000.5 624.5 C 1208.16 624.5 1376.5 792.84 1376.5 1000.5 Z "/></g>
<g style="stroke-width: 2.0;stroke: rgb(0,0,0);stroke-opacity: 1.0;stroke-linecap: square;; fill: none" ><path d="M 1381.5 1000.5 C 1381.5 1210.92 1210.92 1381.5 1000.5 1381.5 C 790.08 1381.5 619.5 1210.92 619.5 1000.5 C 619.5 790.08 790.08 619.5 1000.5 619.5 C 1210.92 619.5 1381.5 790.08 1381.5 1000.5 Z "/></g>
<g style="stroke-width: 2.0;stroke: rgb(0,0,0);stroke-opacity: 1.0;stroke-linecap: square;; fill: none" ><path d="M 1386.5 1000.5 C 1386.5 1213.68 1213.68 1386.5 1000.5 1386.5 C 787.32 1386.5 614.5 1213.68 614.5 1000.5 C 614.5 787.32 787.32 614.5 1000.5 614.5 C 1213.68 614.5 1386.5 787.32 1386.5 1000.5 Z "/></g>
<g style="stroke-width: 2.0;stroke: rgb(0,0,0);stroke-opacity: 1.0;stroke-linecap: square;; fill: none" ><path d="M 1391.5 1000.5 C 1391.5 1216.44 1216.44 1391.5 1000.5 1391.5 C 784.56 1391.5 609.5 1216.44 609.5 1000.5 C 609.5 784.56 784.56 609.5 1000.5 609.5 C 1216.44 609.5 1391.5 784.56 1391.5 1000.5 Z "/></g>
<g style="stroke-width: 2.0;stroke: rgb(0,0,0);stroke-opacity: 1.0;stroke-linecap: square;; fill: none" ><path d="M 1396.5 1000.5 C 1396.5 1219.2 1219.2 1396.5 1000.5 1396.5 C 781.8 1396.5 604.5 1219.2 604.5 1000.5 C 604.5 781.8 781.8 604.5 1000.5 604.5 C 1219.2 604.5 1396.5 781.8 1396.5 1000.5 Z "/></g>
<g style="stroke-width: 2.0;stroke: rgb(0,0,0);stroke-opacity: 1.0;stroke-linecap: square;; fill: none" ><path d="M 1401.5 1000.5 C 1401.5 1221.97 1221.97 1401.5 1000.5 1401.5 C 779.03 1401.5 599.5 1221.97 599.5 1000.5 C 599.5 779.03 779.03 599.5 1000.5 599.5 C 1221.97 599.5 1401.5 779.03 1401.5 1000.5 Z "/></g>
<g style="stroke-width: 2.0;stroke: rgb(0,0,0);stroke-opacity: 1.0;stroke-linecap: square;; fill: none" ><path d="M 1406.5 1000.5 C 1406.5 1224.73 1224.73 1406.5 1000.5 1406.5 C 776.27 1406.5 594.5 1224.73 594.5 1000.5 C 594.5 776.27 776.27 594.5 1000.5 594.5 C 1224.73 594.5 1406.5 776.27 1406.5 1000.5 Z "/></g>
<g style="stroke-width: 2.0;stroke: rgb(0,0,0);stroke-opacity: 1.0;stroke-linecap: square;; fill: none" ><path d="M 1411.5 1000.5 C 1411.5 1227.49 1227.49 1411.5 1000.5 1411.5 C 773.51 1411.5 589.5 1227.49 589.5 1000.5 C 589.5 773.51 773.51 589.5 1000.5 589.5 C 1227.49 589.5 1411.5 773.51 1411.5 1000.5 Z "/></g>
<g style="stroke-width: 2.0;stroke: rgb(0,0,0);stroke-opacity: 1.0;stroke-linecap: square;; fill: none" ><path d="M 1416.5 1000.5 C 1416.5 1230.25 1230.25 1416.5 1000.5 1416.5 C 770.75 1416.5 584.5 1230.25 584.5 1000.5 C 584.5 770.75 770.75 584.5 1000.5 584.5 C 1230.25 584.5 1416.5 770.75 1416.5 1000.5 Z "/></g>
<g style="stroke-width: 2.0;stroke: rgb(0,0,0);stroke-opacity: 1.0;stroke-linecap: square;; fill: none" ><path d="M 1421.5 1000.5 C 1421.5 1233.01 1233.01 1421.5 1000.5 1421.5 C 767.99 1421.5 579.5 1233.01 579.5 1000.5 C 579.5 767.99 767.99 579.5 1000.5 579.5 C 1233.01 579.5 1421.5 767.99 1421.5 1000.5 Z "/></g>
<g style="stroke-width: 2.0;stroke: rgb(0,0,0);stroke-opacity: 1.0;stroke-linecap: square;; fill: none" ><path d="M 1426.5 1000.5 C 1426.5 1235.77 1235.77 1426.5 1000.5 1426.5 C 765.23 1426.5 574.5 1235.77 574.5 1000.5 C 574.5 765.23 765.23 574.5 1000.5 574.5 C 1235.77 574.5 1426.5 765.23 1426.5 1000.5 Z "/></g>
<g style="stroke-width: 2.0;stroke: rgb(0,0,0);stroke-opacity: 1.0;stroke-linecap: square;; fill: none" ><path d="M 1431.5 1000.5 C 1431.5 1238.53 1238.53 1431.5 1000.5 1431.5 C 762.47 1431.5 569.5 1238.53 569.5 1000.5 C 569.5 762.47 762.47 569.5 1000.5 569.5 C 1238.53 569.5 1431.5 762.47 1431.5 1000.5 Z "/></g>
<g style="stroke-width: 2.0;stroke: rgb(0,0,0);stroke-opacity: 1.0;stroke-linecap: square;; fill: none" ><path d="M 1436.5 1000.5 C 1436.5 1241.3 1241.3 1436.5 1000.5 1436.5 C 759.7 1436.5 564.5 1241.3 564.5 1000.5 C 564.5 759.7 759.7 564.5 1000.5 564.5 C 1241.3 564.5 1436.5 759.7 1436.5 1000.5 Z "/></g>
<g style="stroke-width: 2.0;stroke: rgb(0,0,0);stroke-opacity: 1.0;stroke-linecap: square;; fill: none" ><path d="M 1441.5 1000.5 C 1441.5 1244.06 1244.06 1441.5 1000.5 1441.5 C 756.94 1441.5 559.5 1244.06 559.5 1000.5 C 559.5 756.94 756.94 559.5 1000.5 559.5 C 1244.06 559.5 1441.5 756.94 1441.5 1000.5 Z "/></g>
<g style="stroke-width: 2.0;stroke: rgb(0,0,0);stroke-opacity: 1.0;stroke-linecap: square;; fill: none" ><path d="M 1446.5 1000.5 C 1446.5 1246.82 1246.82 1446.5 1000.5 1446.5 C 754.18 1446.5 554.5 1246.82 554.5 1000.5 C 554.5 754.18 754.18 554.5 1000.5 554.5 C 1246.82 554.5 1446.5 754.18 1446.5 1000.5 Z "/></g>
<g style="stroke-width: 2.0;stroke: rgb(0,0,0);stroke-opacity: 1.0;stroke-linecap: square;; fill: none" ><path d="M 1451.5 1000.5 C 1451.5 1249.58 1249.58 1451.5 1000.5 1451.5 C 751.42 1451.5 549.5 1249.58 549.5 1000.5 C 549.5 751.42 751.42 549.5 1000.5 549.5 C 1249.58 549.5 1451.5 751.42 1451.5 1000.5 Z "/></g>
<g style="stroke-width: 2.0;stroke: rgb(0,0,0);stroke-opacity: 1.0;stroke-linecap: square;; fill: none" ><path d="M 1456.5 1000.5 C 1456.5 1252.34 1252.34 1456.5 1000.5 1456.5 C 748.66 1456.5 544.5 1252.34 544.5 1000.5 C 544.5 748.66 748.66 544.5 1000.5 544.5 C 1252.34 544.5 1456.5 748.66 1456.5 1000.5 Z "/></g>
<g style="stroke-width: 2.0;stroke: rgb(0,0,0);stroke-opacity: 1.0;stroke-linecap: square;; fill: none" ><path d="M 1461.5 1000.5 C 1461.5 1255.1 1255.1 1461.5 1000.5 1461.5 C 745.9 1461.5 539.5 1255.1 539.5 1000.5 C 539.5 745.9 745.9 539.5 1000.5 539.5 C 1255.1 539.5 1461.5 745.9 1461.5 1000.5 Z "/></g>
<g style="stroke-width: 2.0;stroke: rgb(0,0,0);stroke-opacity: 1.0;stroke-linecap: square;; fill: none" ><path d="M 1466.5 1000.5 C 1466.5 1257.86 1257.86 1466.5 1000.5 1466.5 C 743.14 1466.5 534.5 1257.86 534.5 1000.5 C 534.5 743.14 743.14 534.5 1000.5 534.5 C 1257.86 534.5 1466.5 743.14 1466.5 1000.5 Z "/></g>
<g style="stroke-width: 2.0;stroke: rgb(0,0,0);stroke-opacity: 1.0;stroke-linecap: square;; fill: none" ><path d="M 1471.5 1000.5 C 1471.5 1260.63 1260.63 1471.5 1000.5 1471.5 C 740.37 1471.5 529.5 1260.63 529.5 1000.5 C 529.5 740.37 740.37 529.5 1000.5 529.5 C 1260.63 529.5 1471.5 740.37 1471.5 1000.5 Z "/></g>
<g style="stroke-width: 2.0;stroke: rgb(0,0,0);stroke-opacity: 1.0;stroke-linecap: square;; fill: none" ><path d="M 1476.5 1000.5 C 1476.5 1263.39 1263.39 1476.5 1000.5 1476.5 C 737.61 1476.5 524.5 1263.39 524.5 1000.5 C 524.5 737.61 737.61 524.5 1000.5 524.5 C 1263.39 524.5 1476.5 737.61 1476.5 1000.5 Z "/></g>
<g style="stroke-width: 2.0;stroke: rgb(0,0,0);stroke-opacity: 1.0;stroke-linecap: square;; fill: none" ><path d="M 1481.5 1000.5 C 1481.5 1266.15 1266.15 1481.5 1000.5 1481.5 C 734.85 1481.5 519.5 1266.15 519.5 1000.5 C 519.5 734.85 734.85 519.5 1000.5 519.5 C 1266.15 519.5 1481.5 734.85 1481.5 1000.5 Z "/></g>
<g style="stroke-width: 2.0;stroke: rgb(0,0,0);stroke-opacity: 1.0;stroke-linecap: square;; fill: none" ><path d="M 1486.5 1000.5 C 1486.5 1268.91 1268.91 1486.5 1000.5 1486.5 C 732.09 1486.5 514.5 1268.91 514.5 1000.5 C 514.5 732.09 732.09 514.5 1000.5 514.5 C 1268.91 514.5 1486.5 732.09 1486.5 1000.5 Z "/></g>
<g style="stroke-width: 2.0;stroke: rgb(0,0,0);stroke-opacity: 1.0;stroke-linecap: square;; fill: none" ><path d="M 1491.5 1000.5 C 1491.5 1271.67 1271.67 1491.5 1000.5 1491.5 C 729.33 1491.5 509.5 1271.67 509.5 1000.5 C 509.5 729.33 729.33 509.5 1000.5 509.5 C 1271.67 509.5 1491.5 729.33 1491.5 1000.5 Z "/></g>
<g style="stroke-width: 2.0;stroke: rgb(0,0,0);stroke-opacity: 1.0;stroke-linecap: square;; fill: none" ><path d="M 1496.5 1000.5 C 1496.5 1274.43 1274.43 1496.5 1000.5 1496.5 C 726.57 1496.5 504.5 1274.43 504.5 1000.5 C 504.5 726.57 726.57 504.5 1000.5 504.5 C 1274.43 504.5 1496.5 726.57 1496.5 1000.5 Z "/></g>
<g style="stroke-width: 2.0;stroke: rgb(0,0,0);stroke-opacity: 1.0;stroke-linecap: square;; fill: none" ><path d="M 1501.5 1000.5 C 1501.5 1277.19 1277.19 1501.5 1000.5 1501.5 C 723.81 1501.5 499.5 1277.19 499.5 1000.5 C 499.5 723.81 723.81 499.5 1000.5 499.5 C 1277.19 499.5 1501.5 723.81 1501.5 1000.5 Z "/></g>
<g style="stroke-width: 2.0;stroke: rgb(0,0,0);stroke-opacity: 1.0;stroke-linecap: square;; fill: none" ><path d="M 1506.5 1000.5 C 1506.5 1279.96 1279.96 1506.5 1000.5 1506.5 C 721.04 1506.5 494.5 1279.96 494.5 1000.5 C 494.5 721.04 721.04 494.5 1000.5 494.5 C 1279.96 494.5 1506.5 721.04 1506.5 1000.5 Z "/></g>
<g style="stroke-width: 2.0;stroke: rgb(0,0,0);stroke-opacity: 1.0;stroke-linecap: square;; fill: none" ><path d="M 1511.5 1000.5 C 1511.5 1282.72 1282.72 1511.5 1000.5 1511.5 C 718.28 1511.5 489.5 1282.72 489.5 1000.5 C 489.5 718.28 718.28 489.5 1000.5 489.5 C 1282.72 489.5 1511.5 718.28 1511.5 1000.5 Z "/></g>
<g style="stroke-width: 2.0;stroke: rgb(0,0,0);stroke-opacity: 1.0;stroke-linecap: square;; fill: none" ><path d="M 1516.5 1000.5 C 1516.5 1285.48 1285.48 1516.5 1000.5 1516.5 C 715.52 1516.5 484.5 1285.48 484.5 1000.5 C 484.5 715.52 715.52 484.5 1000.5 484.5 C 1285.48 484.5 1516.5 715.52 1516.5 1000.5 Z "/></g>
<g style="stroke-width: 2.0;stroke: rgb(0,0,0);stroke-opacity: 1.0;stroke-linecap: square;; fill: none" ><path d="M 1521.5 1000.5 C 1521.5 1288.24 1288.24 1521.5 1000.5 1521.5 C 712.76 1521.5 479.5 1288.24 479.5 1000.5 C 479.5 712.76 712.76 479.5 1000.5 479.5 C 1288.24 479.5 1521.5 712.76 1521.5 1000.5 Z "/></g>
<g style="stroke-width: 2.0;stroke: rgb(0,0,0);stroke-opacity: 1.0;stroke-linecap: square;; fill: none" ><path d="M 1526.5 1000.5 C 1526.5 1291 1291 1526.5 1000.5 1526.5 C 710 1526.5 474.5 1291 474.5 1000.5 C 474.5 710 710 474.5 1000.5 474.5 C 1291 474.5 1526.5 710 1526.5 1000.5 Z "/></g>
<g style="stroke-width: 2.0;stroke: rgb(0,0,0);stroke-opacity: 1.0;stroke-linecap: square;; fill: none" ><path d="M 1531.5 1000.5 C 1531.5 1293.76 1293.76 1531.5 1000.5 1531.5 C 707.24 1531.5 469.5 1293.76 469.5 1000.5 C 469.5 707.24 707.24 469.5 1000.5 469.5 C 1293.76 469.5 1531.5 707.24 1531.5 1000.5 Z "/></g>
<g style="stroke-width: 2.0;stroke: rgb(0,0,0);stroke-opacity: 1.0;stroke-linecap: square;; fill: none" ><path d="M 1536.5 1000.5 C 1536.5 1296.52 1296.52 1536.5 1000.5 1536.5 C 704.48 1536.5 464.5 1296.52 464.5 1000.5 C 464.5 704.48 704.48 464.5 1000.5 464.5 C 1296.52 464.5 1536.5 704.48 1536.5 1000.5 Z "/></g>
<g style="stroke-width: 2.0;stroke: rgb(0,0,0);stroke-opacity: 1.0;stroke-linecap: square;; fill: none" ><path d="M 1541.5 1000.5 C 1541.5 1299.29 1299.29 1541.5 1000.5 1541.5 C 701.71 1541.5 459.5 1299.29 459.5 1000.5 C 459.5 701.71 701.71 459.5 1000.5 459.5 C 1299.29 459.5 1541.5 701.71 1541.5 1000.5 Z "/></g>
<g style="stroke-width: 2.0;stroke: rgb(0,0,0);stroke-opacity: 1.0;stroke-linecap: square;; fill: none" ><path d="M 1546.5 1000.5 C 1546.5 1302.05 1302.05 1546.5 1000.5 1546.5 C 698.95 1546.5 454.5 1302.05 454.5 1000.5 C 454.5 698.95 698.95 454.5 1000.5 454.5 C 1302.05 454.5 1546.5 698.95 1546.5 1000.5 Z "/></g>
<g style="stroke-width: 2.0;stroke: rgb(0,0,0);stroke-opacity: 1.0;stroke-linecap: square;; fill: none" ><path d="M 1551.5 1000.5 C 1551.5 1304.81 1304.81 1551.5 1000.5 1551.5 C 696.19 1551.5 449.5 1304.81 449.5 1000.5 C 449.5 696.19 696.19 449.5 1000.5 449.5 C 1304.81 449.5 1551.5 696.19 1551.5 1000.5 Z "/></g>
<g style="stroke-width: 2.0;stroke: rgb(0,0,0);stroke-opacity: 1.0;stroke-linecap: square;; fill: none" ><path d="M 1556.5 1000.5 C 1556.5 1307.57 1307.57 1556.5 1000.5 1556.5 C 693.43 1556.5 444.5 1307.57 444.5 1000.5 C 444.5 693.43 693.43 444.5 1000.5 444.5 C 1307.57 444.5 1556.5 693.43 1556.5 1000.5 Z "/></g>
<g style="stroke-width: 2.0;stroke: rgb(0,0,0);stroke-opacity: 1.0;stroke-linecap: square;; fill: none" ><path d="M 1561.5 1000.5 C 1561.5 1310.33 1310.33 1561.5 1000.5 1561.5 C 690.67 1561.5 439.5 1310.33 439.5 1000.5 C 439.5 690.67 690.67 439.5 1000.5 439.5 C 1310.33 439.5 1561.5 690.67 1561.5 1000.5 Z "/></g>
<g style="stroke-width: 2.0;stroke: rgb(0,0,0);stroke-opacity: 1.0;stroke-linecap: square;; fill: none" ><path d="M 1566.5 1000.5 C 1566.5 1313.09 1313.09 1566.5 1000.5 1566.5 C 687.91 1566.5 434.5 1313.09 434.5 1000.5 C 434.5 687.91 687.91 434.5 1000.5 434.5 C 1313.09 434.5 1566.5 687.91 1566.5 1000.5 Z "/></g>
<g style="stroke-width: 2.0;stroke: rgb(0,0,0);stroke-opacity: 1.0;stroke-linecap: square;; fill: none" ><path d="M 1571.5 1000.5 C 1571.5 1315.85 1315.85 1571.5 1000.5 1571.5 C 685.15 1571.5 429.5 1315.85 429.5 1000.5 C 429.5 685.15 685.15 429.5 1000.5 429.5 C 1315.85 429.5 1571.5 685.15 1571.5 1000.5 Z "/></g>
<g style="stroke-width: 2.0;stroke: rgb(0,0,0);stroke-opacity: 1.0;stroke-linecap: square;; fill: none" ><path d="M 1576.5 1000.5 C 1576.5 1318.62 1318.62 1576.5 1000.5 1576.5 C 682.38 1576.5 424.5 1318.62 424.5 1000.5 C 424.5 682.38 682.38 424.5 1000.5 424.5 C 1318.62 424.5 1576.5 682.38 1576.5 1000.5 Z "/></g>
<g style="stroke-width: 2.0;stroke: rgb(0,0,0);stroke-opacity: 1.0;stroke-linecap: square;; fill: none" ><path d="M 1581.5 1000.5 C 1581.5 1321.38 1321.38 1581.5 1000.5 1581.5 C 679.62 1581.5 419.5 1321.38 419.5 1000.5 C 419.5 679.62 679.62 419.5 1000.5 419.5 C 1321.38 419.5 1581.5 679.62 1581.5 1000.5 Z "/></g>
<g style="stroke-width: 2.0;stroke: rgb(0,0,0);stroke-opacity: 1.0;stroke-linecap: square;; fill: none" ><path d="M 1586.5 1000.5 C 1586.5 1324.14 1324.14 1586.5 1000.5 1586.5 C 676.86 1586.5 414.5 1324.14 414.5 1000.5 C 414.5 676.86 676.86 414.5 1000.5 414.5 C 1324.14 414.5 1586.5 676.86 1586.5 1000.5 Z "/></g>
<g style="stroke-width: 2.0;stroke: rgb(0,0,0);stroke-opacity: 1.0;stroke-linecap: square;; fill: none" ><path d="M 1591.5 1000.5 C 1591.5 1326.9 1326.9 1591.5 1000.5 1591.5 C 674.1 1591.5 409.5 1326.9 409.5 1000.5 C 409.5 674.1 674.1 409.5 1000.5 409.5 C 1326.9 409.5 1591.5 674.1 1591.5 1000.5 Z "/></g>
<g style="stroke-width: 2.0;stroke: rgb(0,0,0);stroke-opacity: 1.0;stroke-linecap: square;; fill: none" ><path d="M 1596.5 1000.5 C 1596.5 1329.66 1329.66 1596.5 1000.5 1596.5 C 671.34 1596.5 404.5 1329.66 404.5 1000.5 C 404.5 671.34 671.34 404.5 1000.5 404.5 C 1329.66 404.5 1596.5 671.34 1596.5 1000.5 Z "/></g>
<g style="stroke-width: 2.0;stroke: rgb(0,0,0);stroke-opacity: 1.0;stroke-linecap: square;; fill: none" ><path d="M 1601.5 1000.5 C 1601.5 1332.42 1332.42 1601.5 1000.5 1601.5 C 668.58 1601.5 399.5 1332.42 399.5 1000.5 C 399.5 668.58 668.58 399.5 1000.5 399.5 C 1332.42 399.5 1601.5 668.58 1601.5 1000.5 Z "/></g>
<g style="stroke-width: 2.0;stroke: rgb(0,0,0);stroke-opacity: 1.0;stroke-linecap: square;; fill: none" ><path d="M 1606.5 1000.5 C 1606.5 1335.18 1335.18 1606.5 1000.5 1606.5 C 665.82 1606.5 394.5 1335.18 394.5 1000.5 C 394.5 665.82 665.82 394.5 1000.5 394.5 C 1335.18 394.5 1606.5 665.82 1606.5 1000.5 Z "/></g>
<g style="stroke-width: 2.0;stroke: rgb(0,0,0);stroke-opacity: 1.0;stroke-linecap: square;; fill: none" ><path d="M 1611.5 1000.5 C 1611.5 1337.95 1337.95 1611.5 1000.5 1611.5 C 663.05 1611.5 389.5 1337.95 389.5 1000.5 C 389.5 663.05 663.05 389.5 1000.5 389.5 C 1337.95 389.5 1611.5 663.05 1611.5 1000.5 Z "/></g>
<g style="stroke-width: 2.0;stroke: rgb(0,0,0);stroke-opacity: 1.0;stroke-linecap: square;; fill: none" ><path d="M 1616.5 1000.5 C 1616.5 1340.71 1340.71 1616.5 1000.5 1616.5 C 660.29 1616.5 384.5 1340.71 384.5 1000.5 C 384.5 660.29 660.29 384.5 1000.5 384.5 C 1340.71 384.5 1616.5 660.29 1616.5 1000.5 Z "/></g>
<g style="stroke-width: 2.0;stroke: rgb(0,0,0);stroke-opacity: 1.0;stroke-linecap: square;; fill: none" ><path d="M 1621.5 1000.5 C 1621.5 1343.47 1343.47 1621.5 1000.5 1621.5 C 657.53 1621.5 379.5 1343.47 379.5 1000.5 C 379.5 657.53 657.53 379.5 1000.5 379.5 C 1343.47 379.5 1621.5 657.53 1621.5 1000.5 Z "/></g>
<g style="stroke-width: 2.0;stroke: rgb(0,0,0);stroke-opacity: 1.0;stroke-linecap: square;; fill: none" ><path d="M 1626.5 1000.5 C 1626.5 1346.23 1346.23 1626.5 1000.5 1626.5 C 654.77 1626.5 374.5 1346.23 374.5 1000.5 C 374.5 654.77 654.77 374.5 1000.5 374.5 C 1346.23 374.5 1626.5 654.77 1626.5 1000.5 Z "/></g>
<g style="stroke-width: 2.0;stroke: rgb(0,0,0);stroke-opacity: 1.0;stroke-linecap: square;; fill: none" ><path d="M 1631.5 1000.5 C 1631.5 1348.99 1348.99 1631.5 1000.5 1631.5 C 652.01 1631.5 369.5 1348.99 369.5 1000.5 C 369.5 652.01 652.01 369.5 1000.5 369.5 C 1348.99 369.5 1631.5 652.01 1631.5 1000.5 Z "/></g>
<g style="stroke-width: 2.0;stroke: rgb(0,0,0);stroke-opacity: 1.0;stroke-linecap: square;; fill: none" ><path d="M 1636.5 1000.5 C 1636.5 1351.75 1351.75 1636.5 1000.5 1636.5 C 649.25 1636.5 364.5 1351.75 364.5 1000.5 C 364.5 649.25 649.25 364.5 1000.5 364.5 C 1351.75 364.5 1636.5 649.25 1636.5 1000.5 Z "/></g>
<g style="stroke-width: 2.0;stroke: rgb(0,0,0);stroke-opacity: 1.0;stroke-linecap: square;; fill: none" ><path d="M 1641.5 1000.5 C 1641.5 1354.51 1354.51 1641.5 1000.5 1641.5 C 646.49 1641.5 359.5 1354.51 359.5 1000.5 C 359.5 646.49 646.49 359.5 1000.5 359.5 C 1354.51 359.5 1641.5 646.49 1641.5 1000.5 Z "/></g>
<g style="stroke-width: 2.0;stroke: rgb(0,0,0);stroke-opacity: 1.0;stroke-linecap: square;; fill: none" ><path d="M 1646.5 1000.5 C 1646.5 1357.28 1357.28 1646.5 1000.5 1646.5 C 643.72 1646.5 354.5 1357.28 354.5 1000.5 C 354.5 643.72 643.72 354.5 1000.5 354.5 C 1357.28 354.5 1646.5 643.72 1646.5 1000.5 Z "/></g>
<g style="stroke-width: 2.0;stroke: rgb(0,0,0);stroke-opacity: 1.0;stroke-linecap: square;; fill: none" ><path d="M 1651.5 1000.5 C 1651.5 1360.04 1360.04 1651.5 1000.5 1651.5 C 640.96 1651.5 349.5 1360.04 349.5 1000.5 C 349.5 640.96 640.96 349.5 1000.5 349.5 C 1360.04 349.5 1651.5 640.96 1651.5 1000.5 Z "/></g>
<g style="stroke-width: 2.0;stroke: rgb(0,0,0);stroke-opacity: 1.0;stroke-linecap: square;; fill: none" ><path d="M 1656.5 1000.5 C 1656.5 1362.8 1362.8 1656.5 1000.5 1656.5 C 638.2 1656.5 344.5 1362.8 344.5 1000.5 C 344.5 638.2 638.2 344.5 1000.5 344.5 C 1362.8 344.5 1656.5 638.2 1656.5 1000.5 Z "/></g>
<g style="stroke-width: 2.0;stroke: rgb(0,0,0);stroke-opacity: 1.0;stroke-linecap: square;; fill: none" ><path d="M 1661.5 1000.5 C 1661.5 1365.56 1365.56 1661.5 1000.5 1661.5 C 635.44 1661.5 339.5 1365.56 339.5 1000.5 C 339.5 635.44 635.44 339.5 1000.5 339.5 C 1365.56 339.5 1661.5 635.44 1661.5 1000.5 Z "/></g>
<g style="stroke-width: 2.0;stroke: rgb(0,0,0);stroke-opacity: 1.0;stroke-linecap: square;; fill: none" ><path d="M 1666.5 1000.5 C 1666.5 1368.32 1368.32 1666.5 1000.5 1666.5 C 632.68 1666.5 334.5 1368.32 334.5 1000.5 C 334.5 632.68 632.68 334.5 1000.5 334.5 C 1368.32 334.5 1666.5 632.68 1666.5 1000.5 Z "/></g>
<g style="stroke-width: 2.0;stroke: rgb(0,0,0);stroke-opacity: 1.0;stroke-linecap: square;; fill: none" ><path d="M 1671.5 1000.5 C 1671.5 1371.08 1371.08 1671.5 1000.5 1671.5 C 629.92 1671.5 329.5 1371.08 329.5 1000.5 C 329.5 629.92 629.92 329.5 1000.5 329.5 C 1371.08 329.5 1671.5 629.92 1671.5 1000.5 Z "/></g>
<g style="stroke-width: 2.0;stroke: rgb(0,0,0);stroke-opacity: 1.0;stroke-linecap: square;; fill: none" ><path d="M 1676.5 1000.5 C 1676.5 1373.84 1373.84 1676.5 1000.5 1676.5 C 627.16 1676.5 324.5 1373.84 324.5 1000.5 C 324.5 627.16 627.16 324.5 1000.5 324.5 C 1373.84 324.5 1676.5 627.16 1676.5 1000.5 Z "/></g>
<g style="stroke-width: 2.0;stroke: rgb(0,0,0);stroke-opacity: 1.0;stroke-linecap: square;; fill: none" ><path d="M 1681.5 1000.5 C 1681.5 1376.61 1376.61 1681.5 1000.5 1681.5 C 624.39 1681.5 319.5 1376.61 319.5 1000.5 C 319.5 624.39 624.39 319.5 1000.5 319.5 C 1376.61 319.5 1681.5 624.39 1681.5 1000.5 Z "/></g>
<g style="stroke-width: 2.0;stroke: rgb(0,0,0);stroke-opacity: 1.0;stroke-linecap: square;; fill: none" ><path d="M 1686.5 1000.5 C 1686.5 1379.37 1379.37 1686.5 1000.5 1686.5 C 621.63 1686.5 314.5 1379.37 314.5 1000.5 C 314.5 621.63 621.63 314.5 1000.5 314.5 C 1379.37 314.5 1686.5 621.63 1686.5 1000.5 Z "/></g>
<g style="stroke-width: 2.0;stroke: rgb(0,0,0);stroke-opacity: 1.0;stroke-linecap: square;; fill: none" ><path d="M 1691.5 1000.5 C 1691.5 1382.13 1382.13 1691.5 1000.5 1691.5 C 618.87 1691.5 309.5 1382.13 309.5 1000.5 C 309.5 618.87 618.87 309.5 1000.5 309.5 C 1382.13 309.5 1691.5 618.87 1691.5 1000.5 Z "/></g>
<g style="stroke-width: 2.0;stroke: rgb(0,0,0);stroke-opacity: 1.0;stroke-linecap: square;; fill: none" ><path d="M 1696.5 1000.5 C 1696.5 1384.89 1384.89 1696.5 1000.5 1696.5 C 616.11 1696.5 304.5 1384.89 304.5 1000.5 C 304.5 616.11 616.11 304.5 1000.5 304.5 C 1384.89 304.5 1696.5 616.11 1696.5 1000.5 Z "/></g>
<g style="stroke-width: 2.0;stroke: rgb(0,0,0);stroke-opacity: 1.0;stroke-linecap: square;; fill: none" ><path d="M 1701.5 1000.5 C 1701.5 1387.65 1387.65 1701.5 1000.5 1701.5 C 613.35 1701.5 299.5 1387.65 299.5 1000.5 C 299.5 613.35 613.35 299.5 1000.5 299.5 C 1387.65 299.5 1701.5 613.35 1701.5 1000.5 Z "/></g>
<g style="stroke-width: 2.0;stroke: rgb(0,0,0);stroke-opacity: 1.0;stroke-linecap: square;; fill: none" ><path d="M 1706.5 1000.5 C 1706.5 1390.41 1390.41 1706.5 1000.5 1706.5 C 610.59 1706.5 294.5 1390.41 294.5 1000.5 C 294.5 610.59 610.59 294.5 1000.5 294.5 C 1390.41 294.5 1706.5 610.59 1706.5 1000.5 Z "/></g>
<g style="stroke-width: 2.0;stroke: rgb(0,0,0);stroke-opacity: 1.0;stroke-linecap: square;; fill: none" ><path d="M 1711.5 1000.5 C 1711.5 1393.17 1393.17 1711.5 1000.5 1711.5 C 607.83 1711.5 289.5 1393.17 289.5 1000.5 C 289.5 607.83 607.83 289.5 1000.5 289.5 C 1393.17 289.5 1711.5 607.83 1711.5 1000.5 Z "/></g>
<g style="stroke-width: 2.0;stroke: rgb(0,0,0);stroke-opacity: 1.0;stroke-linecap: square;; fill: none" ><path d="M 1716.5 1000.5 C 1716.5 1395.94 1395.94 1716.5 1000.5 1716.5 C 605.06 1716.5 284.5 1395.94 284.5 1000.5 C 284.5 605.06 605.06 284.5 1000.5 284.5 C 1395.94 284.5 1716.5 605.06 1716.5 1000.5 Z "/></g>
<g style="stroke-width: 2.0;stroke: rgb(0,0,0);stroke-opacity: 1.0;stroke-linecap: square;; fill: none" ><path d="M 1721.5 1000.5 C 1721.5 1398.7 1398.7 1721.5 1000.5 1721.5 C 602.3 1721.5 279.5 1398.7 279.5 1000.5 C 279.5 602.3 602.3 279.5 1000.5 279.5 C 1398.7 279.5 1721.5 602.3 1721.5 1000.5 Z "/></g>
<g style="stroke-width: 2.0;stroke: rgb(0,0,0);stroke-opacity: 1.0;stroke-linecap: square;; fill: none" ><path d="M 1726.5 1000.5 C 1726.5 1401.46 1401.46 1726.5 1000.5 1726.5 C 599.54 1726.5 274.5 1401.46 274.5 1000.5 C 274.5 599.54 599.54 274.5 1000.5 274.5 C 1401.46 274.5 1726.5 599.54 1726.5 1000.5 Z "/></g>
<g style="stroke-width: 2.0;stroke: rgb(0,0,0);stroke-opacity: 1.0;stroke-linecap: square;; fill: none" ><path d="M 1731.5 1000.5 C 1731.5 1404.22 1404.22 1731.5 1000.5 1731.5 C 596.78 1731.5 269.5 1404.22 269.5 1000.5 C 269.5 596.78 596.78 269.5 1000.5 269.5 C 1404.22 269.5 1731.5 596.78 1731.5 1000.5 Z "/></g>
<g style="stroke-width: 2.0;stroke: rgb(0,0,0);stroke-opacity: 1.0;stroke-linecap: square;; fill: none" ><path d="M 1736.5 1000.5 C 1736.5 1406.98 1406.98 1736.5 1000.5 1736.5 C 594.02 1736.5 264.5 1406.98 264.5 1000.5 C 264.5 594.02 594.02 264.5 1000.5 264.5 C 1406.98 264.5 1736.5 594.02 1736.5 1000.5 Z "/></g>
<g style="stroke-width: 2.0;stroke: rgb(0,0,0);stroke-opacity: 1.0;stroke-linecap: square;; fill: none" ><path d="M 1741.5 1000.5 C 1741.5 1409.74 1409.74 1741.5 1000.5 1741.5 C 591.26 1741.5 259.5 1409.74 259.5 1000.5 C 259.5 591.26 591.26 259.5 1000.5 259.5 C 1409.74 259.5 1741.5 591.26 1741.5 1000.5 Z "/></g>
<g style="stroke-width: 2.0;stroke: rgb(0,0,0);stroke-opacity: 1.0;stroke-linecap: square;; fill: none" ><path d="M 1746.5 1000.5 C 1746.5 1412.5 1412.5 1746.5 1000.5 1746.5 C 588.5 1746.5 254.5 1412.5 254.5 1000.5 C 254.5 588.5 588.5 254.5 1000.5 254.5 C 1412.5 254.5 1746.5 588.5 1746.5 1000.5 Z "/></g>
<g style="stroke-width: 2.0;stroke: rgb(0,0,0);stroke-opacity: 1.0;stroke-linecap: square;; fill: none" ><path d="M 1751.5 1000.5 C 1751.5 1415.27 1415.27 1751.5 1000.5 1751.5 C 585.73 1751.5 249.5 1415.27 249.5 1000.5 C 249.5 585.73 585.73 249.5 1000.5 249.5 C 1415.27 249.5 1751.5 585.73 1751.5 1000.5 Z "/></g>
<g style="stroke-width: 2.0;stroke: rgb(0,0,0);stroke-opacity: 1.0;stroke-linecap: square;; fill: none" ><path d="M 1756.5 1000.5 C 1756.5 1418.03 1418.03 1756.5 1000.5 1756.5 C 582.97 1756.5 244.5 1418.03 244.5 1000.5 C 244.5 582.97 582.97 244.5 1000.5 244.5 C 1418.03 244.5 1756.5 582.97 1756.5 1000.5 Z "/></g>
<g style="stroke-width: 2.0;stroke: rgb(0,0,0);stroke-opacity: 1.0;stroke-linecap: square;; fill: none" ><path d="M 1761.5 1000.5 C 1761.5 1420.79 1420.79 1761.5 1000.5 1761.5 C 580.21 1761.5 239.5 1420.79 239.5 1000.5 C 239.5 580.21 580.21 239.5 1000.5 239.5 C 1420.79 239.5 1761.5 580.21 1761.5 1000.5 Z "/></g>
<g style="stroke-width: 2.0;stroke: rgb(0,0,0);stroke-opacity: 1.0;stroke-linecap: square;; fill: none" ><path d="M 1766.5 1000.5 C 1766.5 1423.55 1423.55 1766.5 1000.5 1766.5 C 577.45 1766.5 234.5 1423.55 234.5 1000.5 C 234.5 577.45 577.45 234.5 1000.5 234.5 C 1423.55 234.5 1766.5 577.45 1766.5 1000.5 Z "/></g>
<g style="stroke-width: 2.0;stroke: rgb(0,0,0);stroke-opacity: 1.0;stroke-linecap: square;; fill: none" ><path d="M 1771.5 1000.5 C 1771.5 1426.31 1426.31 1771.5 1000.5 1771.5 C 574.69 1771.5 229.5 1426.31 229.5 1000.5 C 229.5 574.69 574.69 229.5 1000.5 229.5 C 1426.31 229.5 1771.5 574.69 1771.5 1000.5 Z "/></g>
<g style="stroke-width: 2.0;stroke: rgb(0,0,0);stroke-opacity: 1.0;stroke-linecap: square;; fill: none" ><path d="M 1776.5 1000.5 C 1776.5 1429.07 1429.07 1776.5 1000.5 1776.5 C 571.93 1776.5 224.5 1429.07 224.5 1000.5 C 224.5 571.93 571.93 224.5 1000.5 224.5 C 1429.07 224.5 1776.5 571.93 1776.5 1000.5 Z "/></g>
<g style="stroke-width: 2.0;stroke: rgb(0,0,0);stroke-opacity: 1.0;stroke-linecap: square;; fill: none" ><path d="M 1781.5 1000.5 C 1781.5 1431.83 1431.83 1781.5 1000.5 1781.5 C 569.17 1781.5 219.5 1431.83 219.5 1000.5 C 219.5 569.17 569.17 219.5 1000.5 219.5 C 1431.83 219.5 1781.5 569.17 1781.5 1000.5 Z "/></g>
<g style="stroke-width: 2.0;stroke: rgb(0,0,0);stroke-opacity: 1.0;stroke-linecap: square;; fill: none" ><path d="M 1786.5 1000.5 C 1786.5 1434.6 1434.6 1786.5 1000.5 1786.5 C 566.4 1786.5 214.5 1434.6 214.5 1000.5 C 214.5 566.4 566.4 214.5 1000.5 214.5 C 1434.6 214.5 1786.5 566.4 1786.5 1000.5 Z "/></g>
<g style="stroke-width: 2.0;stroke: rgb(0,0,0);stroke-opacity: 1.0;stroke-linecap: square;; fill: none" ><path d="M 1791.5 1000.5 C 1791.5 1437.36 1437.36 1791.5 1000.5 1791.5 C 563.64 1791.5 209.5 1437.36 209.5 1000.5 C 209.5 563.64 563.64 209.5 1000.5 209.5 C 1437.36 209.5 1791.5 563.64 1791.5 1000.5 Z "/></g>
<g style="stroke-width: 2.0;stroke: rgb(0,0,0);stroke-opacity: 1.0;stroke-linecap: square;; fill: none" ><path d="M 1796.5 1000.5 C 1796.5 1440.12 1440.12 1796.5 1000.5 1796.5 C 560.88 1796.5 204.5 1440.12 204.5 1000.5 C 204.5 560.88 560.88 204.5 1000.5 204.5 C 1440.12 204.5 1796.5 560.88 1796.5 1000.5 Z "/></g>
<g style="stroke-width: 2.0;stroke: rgb(0,0,0);stroke-opacity: 1.0;stroke-linecap: square;; fill: none" ><path d="M 1801.5 1000.5 C 1801.5 1442.88 1442.88 1801.5 1000.5 1801.5 C 558.12 1801.5 199.5 1442.88 199.5 1000.5 C 199.5 558.12 558.12 199.5 1000.5 199.5 C 1442.88 199.5 1801.5 558.12 1801.5 1000.5 Z "/></g>
<g style="stroke-width: 2.0;stroke: rgb(0,0,0);stroke-opacity: 1.0;stroke-linecap: square;; fill: none" ><path d="M 1806.5 1000.5 C 1806.5 1445.64 1445.64 1806.5 1000.5 1806.5 C 555.36 1806.5 194.5 1445.64 194.5 1000.5 C 194.5 555.36 555.36 194.5 1000.5 194.5 C 1445.64 194.5 1806.5 555.36 1806.5 1000.5 Z "/></g>
<g style="stroke-width: 2.0;stroke: rgb(0,0,0);stroke-opacity: 1.0;stroke-linecap: square;; fill: none" ><path d="M 1811.5 1000.5 C 1811.5 1448.4 1448.4 1811.5 1000.5 1811.5 C 552.6 1811.5 189.5 1448.4 189.5 1000.5 C 189.5 552.6 552.6 189.5 1000.5 189.5 C 1448.4 189.5 1811.5 552.6 1811.5 1000.5 Z "/></g>
<g style="stroke-width: 2.0;stroke: rgb(0,0,0);stroke-opacity: 1.0;stroke-linecap: square;; fill: none" ><path d="M 1816.5 1000.5 C 1816.5 1451.16 1451.16 1816.5 1000.5 1816.5 C 549.84 1816.5 184.5 1451.16 184.5 1000.5 C 184.5 549.84 549.84 184.5 1000.5 184.5 C 1451.16 184.5 1816.5 549.84 1816.5 1000.5 Z "/></g>
<g style="stroke-width: 2.0;stroke: rgb(0,0,0);stroke-opacity: 1.0;stroke-linecap: square;; fill: none" ><path d="M 1821.5 1000.5 C 1821.5 1453.93 1453.93 1821.5 1000.5 1821.5 C 547.07 1821.5 179.5 1453.93 179.5 1000.5 C 179.5 547.07 547.07 179.5 1000.5 179.5 C 1453.93 179.5 1821.5 547.07 1821.5 1000.5 Z "/></g>
<g style="stroke-width: 2.0;stroke: rgb(0,0,0);stroke-opacity: 1.0;stroke-linecap: square;; fill: none" ><path d="M 1826.5 1000.5 C 1826.5 1456.69 1456.69 1826.5 1000.5 1826.5 C 544.31 1826.5 174.5 1456.69 174.5 1000.5 C 174.5 544.31 544.31 174.5 1000.5 174.5 C 1456.69 174.5 1826.5 544.31 1826.5 1000.5 Z "/></g>
<g style="stroke-width: 2.0;stroke: rgb(0,0,0);stroke-opacity: 1.0;stroke-linecap: square;; fill: none" ><path d="M 1831.5 1000.5 C 1831.5 1459.45 1459.45 1831.5 1000.5 1831.5 C 541.55 1831.5 169.5 1459.45 169.5 1000.5 C 169.5 541.55 541.55 169.5 1000.5 169.5 C 1459.45 169.5 1831.5 541.55 1831.5 1000.5 Z "/></g>
<g style="stroke-width: 2.0;stroke: rgb(0,0,0);stroke-opacity: 1.0;stroke-linecap: square;; fill: none" ><path d="M 1836.5 1000.5 C 1836.5 1462.21 1462.21 1836.5 1000.5 1836.5 C 538.79 1836.5 164.5 1462.21 164.5 1000.5 C 164.5 538.79 538.79 164.5 1000.5 164.5 C 1462.21 164.5 1836.5 538.79 1836.5 1000.5 Z "/></g>
<g style="stroke-width: 2.0;stroke: rgb(0,0,0);stroke-opacity: 1.0;stroke-linecap: square;; fill: none" ><path d="M 1841.5 1000.5 C 1841.5 1464.97 1464.97 1841.5 1000.5 1841.5 C 536.03 1841.5 159.5 1464.97 159.5 1000.5 C 159.5 536.03 536.03 159.5 1000.5 159.5 C 1464.97 159.5 1841.5 536.03 1841.5 1000.5 Z "/></g>
<g style="stroke-width: 2.0;stroke: rgb(0,0,0);stroke-opacity: 1.0;stroke-linecap: square;; fill: none" ><path d="M 1846.5 1000.5 C 1846.5 1467.73 1467.73 1846.5 1000.5 1846.5 C 533.27 1846.5 154.5 1467.73 154.5 1000.5 C 154.5 533.27 533.27 154.5 1000.5 154.5 C 1467.73 154.5 1846.5 533.27 1846.5 1000.5 Z "/></g>
<g style="stroke-width: 2.0;stroke: rgb(0,0,0);stroke-opacity: 1.0;stroke-linecap: square;; fill: none" ><path d="M 1851.5 1000.5 C 1851.5 1470.49 1470.49 1851.5 1000.5 1851.5 C 530.51 1851.5 149.5 1470.49 149.5 1000.5 C 149.5 530.51 530.51 149.5 1000.5 149.5 C 1470.49 149.5 1851.5 530.51 1851.5 1000.5 Z "/></g>
<g style="stroke-width: 2.0;stroke: rgb(0,0,0);stroke-opacity: 1.0;stroke-linecap: square;; fill: none" ><path d="M 1856.5 1000.5 C 1856.5 1473.26 1473.26 1856.5 1000.5 1856.5 C 527.74 1856.5 144.5 1473.26 144.5 1000.5 C 144.5 527.74 527.74 144.5 1000.5 144.5 C 1473.26 144.5 1856.5 527.74 1856.5 1000.5 Z "/></g>
<g style="stroke-width: 2.0;stroke: rgb(0,0,0);stroke-opacity: 1.0;stroke-linecap: square;; fill: none" ><path d="M 1861.5 1000.5 C 1861.5 1476.02 1476.02 1861.5 1000.5 1861.5 C 524.98 1861.5 139.5 1476.02 139.5 1000.5 C 139.5 524.98 524.98 139.5 1000.5 139.5 C 1476.02 139.5 1861.5 524.98 1861.5 1000.5 Z "/></g>
<g style="stroke-width: 2.0;stroke: rgb(0,0,0);stroke-opacity: 1.0;stroke-linecap: square;; fill: none" ><path d="M 1866.5 1000.5 C 1866.5 1478.78 1478.78 1866.5 1000.5 1866.5 C 522.22 1866.5 134.5 1478.78 134.5 1000.5 C 134.5 522.22 522.22 134.5 1000.5 134.5 C 1478.78 134.5 1866.5 522.22 1866.5 1000.5 Z "/></g>
<g style="stroke-width: 2.0;stroke: rgb(0,0,0);stroke-opacity: 1.0;stroke-linecap: square;; fill: none" ><path d="M 1871.5 1000.5 C 1871.5 1481.54 1481.54 1871.5 1000.5 1871.5 C 519.46 1871.5 129.5 1481.54 129.5 1000.5 C 129.5 519.46 519.46 129.5 1000.5 129.5 C 1481.54 129.5 1871.5 519.46 1871.5 1000.5 Z "/></g>
<g style="stroke-width: 2.0;stroke: rgb(0,0,0);stroke-opacity: 1.0;stroke-linecap: square;; fill: none" ><path d="M 1876.5 1000.5 C 1876.5 1484.3 1484.3 1876.5 1000.5 1876.5 C 516.7 1876.5 124.5 1484.3 124.5 1000.5 C 124.5 516.7 516.7 124.5 1000.5 124.5 C 1484.3 124.5 1876.5 516.7 1876.5 1000.5 Z "/></g>
<g style="stroke-width: 2.0;stroke: rgb(0,0,0);stroke-opacity: 1.0;stroke-linecap: square;; fill: none" ><path d="M 1881.5 1000.5 C 1881.5 1487.06 1487.06 1881.5 1000.5 1881.5 C 513.94 1881.5 119.5 1487.06 119.5 1000.5 C 119.5 513.94 513.94 119.5 1000.5 119.5 C 1487.06 119.5 1881.5 513.94 1881.5 1000.5 Z "/></g>
<g style="stroke-width: 2.0;stroke: rgb(0,0,0);stroke-opacity: 1.0;stroke-linecap: square;; fill: none" ><path d="M 1886.5 1000.5 C 1886.5 1489.82 1489.82 1886.5 1000.5 1886.5 C 511.18 1886.5 114.5 1489.82 114.5 1000.5 C 114.5 511.18 511.18 114.5 1000.5 114.5 C 1489.82 114.5 1886.5 511.18 1886.5 1000.5 Z "/></g>
<g style="stroke-width: 2.0;stroke: rgb(0,0,0);stroke-opacity: 1.0;stroke-linecap: square;; fill: none" ><path d="M 1891.5 1000.5 C 1891.5 1492.59 1492.59 1891.5 1000.5 1891.5 C 508.41 1891.5 109.5 1492.59 109.5 1000.5 C 109.5 508.41 508.41 109.5 1000.5 109.5 C 1492.59 109.5 1891.5 508.41 1891.5 1000.5 Z "/></g>
<g style="stroke-width: 2.0;stroke: rgb(0,0,0);stroke-opacity: 1.0;stroke-linecap: square;; fill: none" ><path d="M 1896.5 1000.5 C 1896.5 1495.35 1495.35 1896.5 1000.5 1896.5 C 505.65 1896.5 104.5 1495.35 104.5 1000.5 C 104.5 505.65 505.65 104.5 1000.5 104.5 C 1495.35 104.5 1896.5 505.65 1896.5 1000.5 Z "/></g>
<g style="stroke-width: 2.0;stroke: rgb(0,0,0);stroke-opacity: 1.0;stroke-linecap: square;; fill: none" ><path d="M 1901.5 1000.5 C 1901.5 1498.11 1498.11 1901.5 1000.5 1901.5 C 502.89 1901.5 99.5 1498.11 99.5 1000.5 C 99.5 502.89 502.89 99.5 1000.5 99.5 C 1498.11 99.5 1901.5 502.89 1901.5 1000.5 Z "/></g>
<g style="stroke-width: 2.0;stroke: rgb(0,0,0);stroke-opacity: 1.0;stroke-linecap: square;; fill: none" ><path d="M 1906.5 1000.5 C 1906.5 1500.87 1500.87 1906.5 1000.5 1906.5 C 500.13 1906.5 94.5 1500.87 94.5 1000.5 C 94.5 500.13 500.13 94.5 1000.5 94.5 C 1500.87 94.5 1906.5 500.13 1906.5 1000.5 Z "/></g>
<g style="stroke-width: 2.0;stroke: rgb(0,0,0);stroke-opacity: 1.0;stroke-linecap: square;; fill: none" ><path d="M 1911.5 1000.5 C 1911.5 1503.63 1503.63 1911.5 1000.5 1911.5 C 497.37 1911.5 89.5 1503.63 89.5 1000.5 C 89.5 497.37 497.37 89.5 1000.5 89.5 C 1503.63 89.5 1911.5 497.37 1911.5 1000.5 Z "/></g>
<g style="stroke-width: 2.0;stroke: rgb(0,0,0);stroke-opacity: 1.0;stroke-linecap: square;; fill: none" ><path d="M 1916.5 1000.5 C 1916.5 1506.39 1506.39 1916.5 1000.5 1916.5 C 494.61 1916.5 84.5 1506.39 84.5 1000.5 C 84.5 494.61 494.61 84.5 1000.5 84.5 C 1506.39 84.5 1916.5 494.61 1916.5 1000.5 Z "/></g>
<g style="stroke-width: 2.0;stroke: rgb(0,0,0);stroke-opacity: 1.0;stroke-linecap: square;; fill: none" ><path d="M 1921.5 1000.5 C 1921.5 1509.15 1509.15 1921.5 1000.5 1921.5 C 491.85 1921.5 79.5 1509.15 79.5 1000.5 C 79.5 491.85 491.85 79.5 1000.5 79.5 C 1509.15 79.5 1921.5 491.85 1921.5 1000.5 Z "/></g>
<g style="stroke-width: 2.0;stroke: rgb(0,0,0);stroke-opacity: 1.0;stroke-linecap: square;; fill: none" ><path d="M 1926.5 1000.5 C 1926.5 1511.92 1511.92 1926.5 1000.5 1926.5 C 489.08 1926.5 74.5 1511.92 74.5 1000.5 C 74.5 489.08 489.08 74.5 1000.5 74.5 C 1511.92 74.5 1926.5 489.08 1926.5 1000.5 Z "/></g>
<g style="stroke-width: 2.0;stroke: rgb(0,0,0);stroke-opacity: 1.0;stroke-linecap: square;; fill: none" ><path d="M 1931.5 1000.5 C 1931.5 1514.68 1514.68 1931.5 1000.5 1931.5 C 486.32 1931.5 69.5 1514.68 69.5 1000.5 C 69.5 486.32 486.32 69.5 1000.5 69.5 C 1514.68 69.5 1931.5 486.32 1931.5 1000.5 Z "/></g>
<g style="stroke-width: 2.0;stroke: rgb(0,0,0);stroke-opacity: 1.0;stroke-linecap: square;; fill: none" ><path d="M 1936.5 1000.5 C 1936.5 1517.44 1517.44 1936.5 1000.5 1936.5 C 483.56 1936.5 64.5 1517.44 64.5 1000.5 C 64.5 483.56 483.56 64.5 1000.5 64.5 C 1517.44 64.5 1936.5 483.56 1936.5 1000.5 Z "/></g>
<g style="stroke-width: 2.0;stroke: rgb(0,0,0);stroke-opacity: 1.0;stroke-linecap: square;; fill: none" ><path d="M 1941.5 1000.5 C 1941.5 1520.2 1520.2 1941.5 1000.5 1941.5 C 480.8 1941.5 59.5 1520.2 59.5 1000.5 C 59.5 480.8 480.8 59.5 1000.5 59.5 C 1520.2 59.5 1941.5 480.8 1941.5 1000.5 Z "/></g>
<g style="stroke-width: 2.0;stroke: rgb(0,0,0);stroke-opacity: 1.0;stroke-linecap: square;; fill: none" ><path d="M 1946.5 1000.5 C 1946.5 1522.96 1522.96 1946.5 1000.5 1946.5 C 478.04 1946.5 54.5 1522.96 54.5 1000.5 C 54.5 478.04 478.04 54.5 1000.5 54.5 C 1522.96 54.5 1946.5 478.04 1946.5 1000.5 Z "/></g>
<g style="stroke-width: 2.0;stroke: rgb(0,0,0);stroke-opacity: 1.0;stroke-linecap: square;; fill: none" ><path d="M 1951.5 1000.5 C 1951.5 1525.72 1525.72 1951.5 1000.5 1951.5 C 475.28 1951.5 49.5 1525.72 49.5 1000.5 C 49.5 475.28 475.28 49.5 1000.5 49.5 C 1525.72 49.5 1951.5 475.28 1951.5 1000.5 Z "/></g>
<g style="stroke-width: 2.0;stroke: rgb(0,0,0);stroke-opacity: 1.0;stroke-linecap: square;; fill: none" ><path d="M 1956.5 1000.5 C 1956.5 1528.48 1528.48 1956.5 1000.5 1956.5 C 472.52 1956.5 44.5 1528.48 44.5 1000.5 C 44.5 472.52 472.52 44.5 1000.5 44.5 C 1528.48 44.5 1956.5 472.52 1956.5 1000.5 Z "/></g>
<g style="stroke-width: 2.0;stroke: rgb(0,0,0);stroke-opacity: 1.0;stroke-linecap: square;; fill: none" ><path d="M 1961.5 1000.5 C 1961.5 1531.25 1531.25 1961.5 1000.5 1961.5 C 469.75 1961.5 39.5 1531.25 39.5 1000.5 C 39.5 469.75 469.75 39.5 1000.5 39.5 C 1531.25 39.5 1961.5 469.75 1961.5 1000.5 Z "/></g>
<g style="stroke-width: 2.0;stroke: rgb(0,0,0);stroke-opacity: 1.0;stroke-linecap: square;; fill: none" ><path d="M 1966.5 1000.5 C 1966.5 1534.01 1534.01 1966.5 1000.5 1966.5 C 466.99 1966.5 34.5 1534.01 34.5 1000.5 C 34.5 466.99 466.99 34.5 1000.5 34.5 C 1534.01 34.5 1966.5 466.99 1966.5 1000.5 Z "/></g>
<g style="stroke-width: 2.0;stroke: rgb(0,0,0);stroke-opacity: 1.0;stroke-linecap: square;; fill: none" ><path d="M 1971.5 1000.5 C 1971.5 1536.77 1536.77 1971.5 1000.5 1971.5 C 464.23 1971.5 29.5 1536.77 29.5 1000.5 C 29.5 464.23 464.23 29.5 1000.5 29.5 C 1536.77 29.5 1971.5 464.23 1971.5 1000.5 Z "/></g>
<g style="stroke-width: 2.0;stroke: rgb(0,0,0);stroke-opacity: 1.0;stroke-linecap: square;; fill: none" ><path d="M 1976.5 1000.5 C 1976.5 1539.53 1539.53 1976.5 1000.5 1976.5 C 461.47 1976.5 24.5 1539.53 24.5 1000.5 C 24.5 461.47 461.47 24.5 1000.5 24.5 C 1539.53 24.5 1976.5 461.47 1976.5 1000.5 Z "/></g>
<g style="stroke-width: 2.0;stroke: rgb(0,0,0);stroke-opacity: 1.0;stroke-linecap: square;; fill: none" ><path d="M 1981.5 1000.5 C 1981.5 1542.29 1542.29 1981.5 1000.5 1981.5 C 458.71 1981.5 19.5 1542.29 19.5 1000.5 C 19.5 458.71 458.71 19.5 1000.5 19.5 C 1542.29 19.5 1981.5 458.71 1981.5 1000.5 Z "/></g>
<g style="stroke-width: 2.0;stroke: rgb(0,0,0);stroke-opacity: 1.0;stroke-linecap: square;; fill: none" ><path d="M 1986.5 1000.5 C 1986.5 1545.05 1545.05 1986.5 1000.5 1986.5 C 455.95 1986.5 14.5 1545.05 14.5 1000.5 C 14.5 455.95 455.95 14.5 1000.5 14.5 C 1545.05 14.5 1986.5 455.95 1986.5 1000.5 Z "/></g>
</svg>
