<?xml version="1.0"?>
<!DOCTYPE svg PUBLIC "-//W3C//DTD SVG 1.0//EN" "http://www.w3.org/TR/2001/REC-SVG-20010904/DTD/svg10.dtd">
<svg xmlns="http://www.w3.org/2000/svg" xmlns:xlink="http://www.w3.org/1999/xlink" xmlns:jfreesvg="http://www.jfree.org/jfreesvg/svg" width="2000" height="2000" text-rendering="auto" shape-rendering="auto" color-interpolation="linearRGB" color-interpolation-filters="linearRGB" color-rendering="optimizeQuality">
<defs></defs>
<rect x="0" y="0" width="2000" height="2000" style="fill: rgb(255,255,255); fill-opacity: 1.0" />
<g style="fill: rgb(0,0,0); fill-opacity: 1.0; stroke: none" ><path d="M 1990.5 1000.5 C 1990.5 1547.26 1547.26 1990.5 1000.5 1990.5 C 453.74 1990.5 10.5 1547.26 10.5 1000.5 C 10.5 453.74 453.74 10.5 1000.5 10.5 C 1547.26 10.5 1990.5 453.74 1990.5 1000.5 Z "/></g>
<g style="fill: rgb(255,255,255); fill-opacity: 1.0; stroke: none" ><path d="M 1985.5 1000.5 C 1985.5 1544.5 1544.5 1985.5 1000.5 1985.5 C 456.5 1985.5 15.5 1544.5 15.5 1000.5 C 15.5 456.5 456.5 15.5 1000.5 15.5 C 1544.5 15.5 1985.5 456.5 1985.5 1000.5 Z "/></g>
<g style="fill: rgb(0,0,0); fill-opacity: 1.0; stroke: none" ><path d="M 1980.5 1000.5 C 1980.5 1541.74 1541.74 1980.5 1000.5 1980.5 C 459.26 1980.5 20.5 1541.74 20.5 1000.5 C 20.5 459.26 459.26 20.5 1000.5 20.5 C 1541.74 20.5 1980.5 459.26 1980.5 1000.5 Z "/></g>
<g style="fill: rgb(255,255,255); fill-opacity: 1.0; stroke: none" ><path d="M 1975.5 1000.5 C 1975.5 1538.98 1538.98 1975.5 1000.5 1975.5 C 462.02 1975.5 25.5 1538.98 25.5 1000.5 C 25.5 462.02 462.02 25.5 1000.5 25.5 C 1538.98 25.5 1975.5 462.02 1975.5 1000.5 Z "/></g>
<g style="fill: rgb(0,0,0); fill-opacity: 1.0; stroke: none" ><path d="M 1970.5 1000.5 C 1970.5 1536.22 1536.22 1970.5 1000.5 1970.5 C 464.78 1970.5 30.5 1536.22 30.5 1000.5 C 30.5 464.78 464.78 30.5 1000.5 30.5 C 1536.22 30.5 1970.5 464.78 1970.5 1000.5 Z "/></g>
<g style="fill: rgb(255,255,255); fill-opacity: 1.0; stroke: none" ><path d="M 1965.5 1000.5 C 1965.5 1533.45 1533.45 1965.5 1000.5 1965.5 C 467.55 1965.5 35.5 1533.45 35.5 1000.5 C 35.5 467.55 467.55 35.5 1000.5 35.5 C 1533.45 35.5 1965.5 467.55 1965.5 1000.5 Z "/></g>
<g style="fill: rgb(0,0,0); fill-opacity: 1.0; stroke: none" ><path d="M 1960.5 1000.5 C 1960.5 1530.69 1530.69 1960.5 1000.5 1960.5 C 470.31 1960.5 40.5 1530.69 40.5 1000.5 C 40.5 470.31 470.31 40.5 1000.5 40.5 C 1530.69 40.5 1960.5 470.31 1960.5 1000.5 Z "/></g>
<g style="fill: rgb(255,255,255); fill-opacity: 1.0; stroke: none" ><path d="M 1955.5 1000.5 C 1955.5 1527.93 1527.93 1955.5 1000.5 1955.5 C 473.07 1955.5 45.5 1527.93 45.5 1000.5 C 45.5 473.07 473.07 45.5 1000.5 45.5 C 1527.93 45.5 1955.5 473.07 1955.5 1000.5 Z "/></g>
<g style="fill: rgb(0,0,0); fill-opacity: 1.0; stroke: none" ><path d="M 1950.5 1000.5 C 1950.5 1525.17 1525.17 1950.5 1000.5 1950.5 C 475.83 1950.5 50.5 1525.17 50.5 1000.5 C 50.5 475.83 475.83 50.5 1000.5 50.5 C 1525.17 50.5 1950.5 475.83 1950.5 1000.5 Z "/></g>
<g style="fill: rgb(255,255,255); fill-opacity: 1.0; stroke: none" ><path d="M 1945.5 1000.5 C 1945.5 1522.41 1522.41 1945.5 1000.5 1945.5 C 478.59 1945.5 55.5 1522.41 55.5 1000.5 C 55.5 478.59 478.59 55.5 1000.5 55.5 C 1522.41 55.5 1945.5 478.59 1945.5 1000.5 Z "/></g>
<g style="fill: rgb(0,0,0); fill-opacity: 1.0; stroke: none" ><path d="M 1940.5 1000.5 C 1940.5 1519.65 1519.65 1940.5 1000.5 1940.5 C 481.35 1940.5 60.5 1519.65 60.5 1000.5 C 60.5 481.35 481.35 60.5 1000.5 60.5 C 1519.65 60.5 1940.5 481.35 1940.5 1000.5 Z "/></g>
<g style="fill: rgb(255,255,255); fill-opacity: 1.0; stroke: none" ><path d="M 1935.5 1000.5 C 1935.5 1516.89 1516.89 1935.5 1000.5 1935.5 C 484.11 1935.5 65.5 1516.89 65.5 1000.5 C 65.5 484.11 484.11 65.5 1000.5 65.5 C 1516.89 65.5 1935.5 484.11 1935.5 1000.5 Z "/></g>
<g style="fill: rgb(0,0,0); fill-opacity: 1.0; stroke: none" ><path d="M 1930.5 1000.5 C 1930.5 1514.12 1514.12 1930.5 1000.5 1930.5 C 486.88 1930.5 70.5 1514.12 70.5 1000.5 C 70.5 486.88 486.88 70.5 1000.5 70.5 C 1514.12 70.5 1930.5 486.88 1930.5 1000.5 Z "/></g>
<g style="fill: rgb(255,255,255); fill-opacity: 1.0; stroke: none" ><path d="M 1925.5 1000.5 C 1925.5 1511.36 1511.36 1925.5 1000.5 1925.5 C 489.64 1925.5 75.5 1511.36 75.5 1000.5 C 75.5 489.64 489.64 75.5 1000.5 75.5 C 1511.36 75.5 1925.5 489.64 1925.5 1000.5 Z "/></g>
<g style="fill: rgb(0,0,0); fill-opacity: 1.0; stroke: none" ><path d="M 1920.5 1000.5 C 1920.5 1508.6 1508.6 1920.5 1000.5 1920.5 C 492.4 1920.5 80.5 1508.6 80.5 1000.5 C 80.5 492.4 492.4 80.5 1000.5 80.5 C 1508.6 80.5 1920.5 492.4 1920.5 1000.5 Z "/></g>
<g style="fill: rgb(255,255,255); fill-opacity: 1.0; stroke: none" ><path d="M 1915.5 1000.5 C 1915.5 1505.84 1505.84 1915.5 1000.5 1915.5 C 495.16 1915.5 85.5 1505.84 85.5 1000.5 C 85.5 495.16 495.16 85.5 1000.5 85.5 C 1505.84 85.5 1915.5 495.16 1915.5 1000.5 Z "/></g>
<g style="fill: rgb(0,0,0); fill-opacity: 1.0; stroke: none" ><path d="M 1910.5 1000.5 C 1910.5 1503.08 1503.08 1910.5 1000.5 1910.5 C 497.92 1910.5 90.5 1503.08 90.5 1000.5 C 90.5 497.92 497.92 90.5 1000.5 90.5 C 1503.08 90.5 1910.5 497.92 1910.5 1000.5 Z "/></g>
<g style="fill: rgb(255,255,255); fill-opacity: 1.0; stroke: none" ><path d="M 1905.5 1000.5 C 1905.5 1500.32 1500.32 1905.5 1000.5 1905.5 C 500.68 1905.5 95.5 1500.32 95.5 1000.5 C 95.5 500.68 500.68 95.5 1000.5 95.5 C 1500.32 95.5 1905.5 500.68 1905.5 1000.5 Z "/></g>
<g style="fill: rgb(0,0,0); fill-opacity: 1.0; stroke: none" ><path d="M 1900.5 1000.5 C 1900.5 1497.56 1497.56 1900.5 1000.5 1900.5 C 503.44 1900.5 100.5 1497.56 100.5 1000.5 C 100.5 503.44 503.44 100.5 1000.5 100.5 C 1497.56 100.5 1900.5 503.44 1900.5 1000.5 Z "/></g>
<g style="fill: rgb(255,255,255); fill-opacity: 1.0; stroke: none" ><path d="M 1895.5 1000.5 C 1895.5 1494.79 1494.79 1895.5 1000.5 1895.5 C 506.21 1895.5 105.5 1494.79 105.5 1000.5 C 105.5 506.21 506.21 105.5 1000.5 105.5 C 1494.79 105.5 1895.5 506.21 1895.5 1000.5 Z "/></g>
<g style="fill: rgb(0,0,0); fill-opacity: 1.0; stroke: none" ><path d="M 1890.5 1000.5 C 1890.5 1492.03 1492.03 1890.5 1000.5 1890.5 C 508.97 1890.5 110.5 1492.03 110.5 1000.5 C 110.5 508.97 508.97 110.5 1000.5 110.5 C 1492.03 110.5 1890.5 508.97 1890.5 1000.5 Z "/></g>
<g style="fill: rgb(255,255,255); fill-opacity: 1.0; stroke: none" ><path d="M 1885.5 1000.5 C 1885.5 1489.27 1489.27 1885.5 1000.5 1885.5 C 511.73 1885.5 115.5 1489.27 115.5 1000.5 C 115.5 511.73 511.73 115.5 1000.5 115.5 C 1489.27 115.5 1885.5 511.73 1885.5 1000.5 Z "/></g>
<g style="fill: rgb(0,0,0); fill-opacity: 1.0; stroke: none" ><path d="M 1880.5 1000.5 C 1880.5 1486.51 1486.51 1880.5 1000.5 1880.5 C 514.49 1880.5 120.5 1486.51 120.5 1000.5 C 120.5 514.49 514.49 120.5 1000.5 120.5 C 1486.51 120.5 1880.5 514.49 1880.5 1000.5 Z "/></g>
<g style="fill: rgb(255,255,255); fill-opacity: 1.0; stroke: none" ><path d="M 1875.5 1000.5 C 1875.5 1483.75 1483.75 1875.5 1000.5 1875.5 C 517.25 1875.5 125.5 1483.75 125.5 1000.5 C 125.5 517.25 517.25 125.5 1000.5 125.5 C 1483.75 125.5 1875.5 517.25 1875.5 1000.5 Z "/></g>
<g style="fill: rgb(0,0,0); fill-opacity: 1.0; stroke: none" ><path d="M 1870.5 1000.5 C 1870.5 1480.99 1480.99 1870.5 1000.5 1870.5 C 520.01 1870.5 130.5 1480.99 130.5 1000.5 C 130.5 520.01 520.01 130.5 1000.5 130.5 C 1480.99 130.5 1870.5 520.01 1870.5 1000.5 Z "/></g>
<g style="fill: rgb(255,255,255); fill-opacity: 1.0; stroke: none" ><path d="M 1865.5 1000.5 C 1865.5 1478.23 1478.23 1865.5 1000.5 1865.5 C 522.77 1865.5 135.5 1478.23 135.5 1000.5 C 135.5 522.77 522.77 135.5 1000.5 135.5 C 1478.23 135.5 1865.5 522.77 1865.5 1000.5 Z "/></g>
<g style="fill: rgb(0,0,0); fill-opacity: 1.0; stroke: none" ><path d="M 1860.5 1000.5 C 1860.5 1475.46 1475.46 1860.5 1000.5 1860.5 C 525.54 1860.5 140.5 1475.46 140.5 1000.5 C 140.5 525.54 525.54 140.5 1000.5 140.5 C 1475.46 140.5 1860.5 525.54 1860.5 1000.5 Z "/></g>
<g style="fill: rgb(255,255,255); fill-opacity: 1.0; stroke: none" ><path d="M 1855.5 1000.5 C 1855.5 1472.7 1472.7 1855.5 1000.5 1855.5 C 528.3 1855.5 145.5 1472.7 145.5 1000.5 C 145.5 528.3 528.3 145.5 1000.5 145.5 C 1472.7 145.5 1855.5 528.3 1855.5 1000.5 Z "/></g>
<g style="fill: rgb(0,0,0); fill-opacity: 1.0; stroke: none" ><path d="M 1850.5 1000.5 C 1850.5 1469.94 1469.94 1850.5 1000.5 1850.5 C 531.06 1850.5 150.5 1469.94 150.5 1000.5 C 150.5 531.06 531.06 150.5 1000.5 150.5 C 1469.94 150.5 1850.5 531.06 1850.5 1000.5 Z "/></g>
<g style="fill: rgb(255,255,255); fill-opacity: 1.0; stroke: none" ><path d="M 1845.5 1000.5 C 1845.5 1467.18 1467.18 1845.5 1000.5 1845.5 C 533.82 1845.5 155.5 1467.18 155.5 1000.5 C 155.5 533.82 533.82 155.5 1000.5 155.5 C 1467.18 155.5 1845.5 533.82 1845.5 1000.5 Z "/></g>
<g style="fill: rgb(0,0,0); fill-opacity: 1.0; stroke: none" ><path d="M 1840.5 1000.5 C 1840.5 1464.42 1464.42 1840.5 1000.5 1840.5 C 536.58 1840.5 160.5 1464.42 160.5 1000.5 C 160.5 536.58 536.58 160.5 1000.5 160.5 C 1464.42 160.5 1840.5 536.58 1840.5 1000.5 Z "/></g>
<g style="fill: rgb(255,255,255); fill-opacity: 1.0; stroke: none" ><path d="M 1835.5 1000.5 C 1835.5 1461.66 1461.66 1835.5 1000.5 1835.5 C 539.34 1835.5 165.5 1461.66 165.5 1000.5 C 165.5 539.34 539.34 165.5 1000.5 165.5 C 1461.66 165.5 1835.5 539.34 1835.5 1000.5 Z "/></g>
<g style="fill: rgb(0,0,0); fill-opacity: 1.0; stroke: none" ><path d="M 1830.5 1000.5 C 1830.5 1458.9 1458.9 1830.5 1000.5 1830.5 C 542.1 1830.5 170.5 1458.9 170.5 1000.5 C 170.5 542.1 542.1 170.5 1000.5 170.5 C 1458.9 170.5 1830.5 542.1 1830.5 1000.5 Z "/></g>
<g style="fill: rgb(255,255,255); fill-opacity: 1.0; stroke: none" ><path d="M 1825.5 1000.5 C 1825.5 1456.13 1456.13 1825.5 1000.5 1825.5 C 544.87 1825.5 175.5 1456.13 175.5 1000.5 C 175.5 544.87 544.87 175.5 1000.5 175.5 C 1456.13 175.5 1825.5 544.87 1825.5 1000.5 Z "/></g>
<g style="fill: rgb(0,0,0); fill-opacity: 1.0; stroke: none" ><path d="M 1820.5 1000.5 C 1820.5 1453.37 1453.37 1820.5 1000.5 1820.5 C 547.63 1820.5 180.5 1453.37 180.5 1000.5 C 180.5 547.63 547.63 180.5 1000.5 180.5 C 1453.37 180.5 1820.5 547.63 1820.5 1000.5 Z "/></g>
<g style="fill: rgb(255,255,255); fill-opacity: 1.0; stroke: none" ><path d="M 1815.5 1000.5 C 1815.5 1450.61 1450.61 1815.5 1000.5 1815.5 C 550.39 1815.5 185.5 1450.61 185.5 1000.5 C 185.5 550.39 550.39 185.5 1000.5 185.5 C 1450.61 185.5 1815.5 550.39 1815.5 1000.5 Z "/></g>
<g style="fill: rgb(0,0,0); fill-opacity: 1.0; stroke: none" ><path d="M 1810.5 1000.5 C 1810.5 1447.85 1447.85 1810.5 1000.5 1810.5 C 553.15 1810.5 190.5 1447.85 190.5 1000.5 C 190.5 553.15 553.15 190.5 1000.5 190.5 C 1447.85 190.5 1810.5 553.15 1810.5 1000.5 Z "/></g>
<g style="fill: rgb(255,255,255); fill-opacity: 1.0; stroke: none" ><path d="M 1805.5 1000.5 C 1805.5 1445.09 1445.09 1805.5 1000.5 1805.5 C 555.91 1805.5 195.5 1445.09 195.5 1000.5 C 195.5 555.91 555.91 195.5 1000.5 195.5 C 1445.09 195.5 1805.5 555.91 1805.5 1000.5 Z "/></g>
<g style="fill: rgb(0,0,0); fill-opacity: 1.0; stroke: none" ><path d="M 1800.5 1000.5 C 1800.5 1442.33 1442.33 1800.5 1000.5 1800.5 C 558.67 1800.5 200.5 1442.33 200.5 1000.5 C 200.5 558.67 558.67 200.5 1000.5 200.5 C 1442.33 200.5 1800.5 558.67 1800.5 1000.5 Z "/></g>
<g style="fill: rgb(255,255,255); fill-opacity: 1.0; stroke: none" ><path d="M 1795.5 1000.5 C 1795.5 1439.57 1439.57 1795.5 1000.5 1795.5 C 561.43 1795.5 205.5 1439.57 205.5 1000.5 C 205.5 561.43 561.43 205.5 1000.5 205.5 C 1439.57 205.5 1795.5 561.43 1795.5 1000.5 Z "/></g>
<g style="fill: rgb(0,0,0); fill-opacity: 1.0; stroke: none" ><path d="M 1790.5 1000.5 C 1790.5 1436.8 1436.8 1790.5 1000.5 1790.5 C 564.2 1790.5 210.5 1436.8 210.5 1000.5 C 210.5 564.2 564.2 210.5 1000.5 210.5 C 1436.8 210.5 1790.5 564.2 1790.5 1000.5 Z "/></g>
<g style="fill: rgb(255,255,255); fill-opacity: 1.0; stroke: none" ><path d="M 1785.5 1000.5 C 1785.5 1434.04 1434.04 1785.5 1000.5 1785.5 C 566.96 1785.5 215.5 1434.04 215.5 1000.5 C 215.5 566.96 566.96 215.5 1000.5 215.5 C 1434.04 215.5 1785.5 566.96 1785.5 1000.5 Z "/></g>
<g style="fill: rgb(0,0,0); fill-opacity: 1.0; stroke: none" ><path d="M 1780.5 1000.5 C 1780.5 1431.28 1431.28 1780.5 1000.5 1780.5 C 569.72 1780.5 220.5 1431.28 220.5 1000.5 C 220.5 569.72 569.72 220.5 1000.5 220.5 C 1431.28 220.5 1780.5 569.72 1780.5 1000.5 Z "/></g>
<g style="fill: rgb(255,255,255); fill-opacity: 1.0; stroke: none" ><path d="M 1775.5 1000.5 C 1775.5 1428.52 1428.52 1775.5 1000.5 1775.5 C 572.48 1775.5 225.5 1428.52 225.5 1000.5 C 225.5 572.48 572.48 225.5 1000.5 225.5 C 1428.52 225.5 1775.5 572.48 1775.5 1000.5 Z "/></g>
<g style="fill: rgb(0,0,0); fill-opacity: 1.0; stroke: none" ><path d="M 1770.5 1000.5 C 1770.5 1425.76 1425.76 1770.5 1000.5 1770.5 C 575.24 1770.5 230.5 1425.76 230.5 1000.5 C 230.5 575.24 575.24 230.5 1000.5 230.5 C 1425.76 230.5 1770.5 575.24 1770.5 1000.5 Z "/></g>
<g style="fill: rgb(255,255,255); fill-opacity: 1.0; stroke: none" ><path d="M 1765.5 1000.5 C 1765.5 1423 1423 1765.5 1000.5 1765.5 C 578 1765.5 235.5 1423 235.5 1000.5 C 235.5 578 578 235.5 1000.5 235.5 C 1423 235.5 1765.5 578 1765.5 1000.5 Z "/></g>
<g style="fill: rgb(0,0,0); fill-opacity: 1.0; stroke: none" ><path d="M 1760.5 1000.5 C 1760.5 1420.24 1420.24 1760.5 1000.5 1760.5 C 580.76 1760.5 240.5 1420.24 240.5 1000.5 C 240.5 580.76 580.76 240.5 1000.5 240.5 C 1420.24 240.5 1760.5 580.76 1760.5 1000.5 Z "/></g>
<g style="fill: rgb(255,255,255); fill-opacity: 1.0; stroke: none" ><path d="M 1755.5 1000.5 C 1755.5 1417.47 1417.47 1755.5 1000.5 1755.5 C 583.53 1755.5 245.5 1417.47 245.5 1000.5 C 245.5 583.53 583.53 245.5 1000.5 245.5 C 1417.47 245.5 1755.5 583.53 1755.5 1000.5 Z "/></g>
<g style="fill: rgb(0,0,0); fill-opacity: 1.0; stroke: none" ><path d="M 1750.5 1000.5 C 1750.5 1414.71 1414.71 1750.5 1000.5 1750.5 C 586.29 1750.5 250.5 1414.71 250.5 1000.5 C 250.5 586.29 586.29 250.5 1000.5 250.5 C 1414.71 250.5 1750.5 586.29 1750.5 1000.5 Z "/></g>
<g style="fill: rgb(255,255,255); fill-opacity: 1.0; stroke: none" ><path d="M 1745.5 1000.5 C 1745.5 1411.95 1411.95 1745.5 1000.5 1745.5 C 589.05 1745.5 255.5 1411.95 255.5 1000.5 C 255.5 589.05 589.05 255.5 1000.5 255.5 C 1411.95 255.5 1745.5 589.05 1745.5 1000.5 Z "/></g>
<g style="fill: rgb(0,0,0); fill-opacity: 1.0; stroke: none" ><path d="M 1740.5 1000.5 C 1740.5 1409.19 1409.19 1740.5 1000.5 1740.5 C 591.81 1740.5 260.5 1409.19 260.5 1000.5 C 260.5 591.81 591.81 260.5 1000.5 260.5 C 1409.19 260.5 1740.5 591.81 1740.5 1000.5 Z "/></g>
<g style="fill: rgb(255,255,255); fill-opacity: 1.0; stroke: none" ><path d="M 1735.5 1000.5 C 1735.5 1406.43 1406.43 1735.5 1000.5 1735.5 C 594.57 1735.5 265.5 1406.43 265.5 1000.5 C 265.5 594.57 594.57 265.5 1000.5 265.5 C 1406.43 265.5 1735.5 594.57 1735.5 1000.5 Z "/></g>
<g style="fill: rgb(0,0,0); fill-opacity: 1.0; stroke: none" ><path d="M 1730.5 1000.5 C 1730.5 1403.67 1403.67 1730.5 1000.5 1730.5 C 597.33 1730.5 270.5 1403.67 270.5 1000.5 C 270.5 597.33 597.33 270.5 1000.5 270.5 C 1403.67 270.5 1730.5 597.33 1730.5 1000.5 Z "/></g>
<g style="fill: rgb(255,255,255); fill-opacity: 1.0; stroke: none" ><path d="M 1725.5 1000.5 C 1725.5 1400.91 1400.91 1725.5 1000.5 1725.5 C 600.09 1725.5 275.5 1400.91 275.5 1000.5 C 275.5 600.09 600.09 275.5 1000.5 275.5 C 1400.91 275.5 1725.5 600.09 1725.5 1000.5 Z "/></g>
<g style="fill: rgb(0,0,0); fill-opacity: 1.0; stroke: none" ><path d="M 1720.5 1000.5 C 1720.5 1398.15 1398.15 1720.5 1000.5 1720.5 C 602.85 1720.5 280.5 1398.15 280.5 1000.5 C 280.5 602.85 602.85 280.5 1000.5 280.5 C 1398.15 280.5 1720.5 602.85 1720.5 1000.5 Z "/></g>
<g style="fill: rgb(255,255,255); fill-opacity: 1.0; stroke: none" ><path d="M 1715.5 1000.5 C 1715.5 1395.38 1395.38 1715.5 1000.5 1715.5 C 605.62 1715.5 285.5 1395.38 285.5 1000.5 C 285.5 605.62 605.62 285.5 1000.5 285.5 C 1395.38 285.5 1715.5 605.62 1715.5 1000.5 Z "/></g>
<g style="fill: rgb(0,0,0); fill-opacity: 1.0; stroke: none" ><path d="M 1710.5 1000.5 C 1710.5 1392.62 1392.62 1710.5 1000.5 1710.5 C 608.38 1710.5 290.5 1392.62 290.5 1000.5 C 290.5 608.38 608.38 290.5 1000.5 290.5 C 1392.62 290.5 1710.5 608.38 1710.5 1000.5 Z "/></g>
<g style="fill: rgb(255,255,255); fill-opacity: 1.0; stroke: none" ><path d="M 1705.5 1000.5 C 1705.5 1389.86 1389.86 1705.5 1000.5 1705.5 C 611.14 1705.5 295.5 1389.86 295.5 1000.5 C 295.5 611.14 611.14 295.5 1000.5 295.5 C 1389.86 295.5 1705.5 611.14 1705.5 1000.5 Z "/></g>
<g style="fill: rgb(0,0,0); fill-opacity: 1.0; stroke: none" ><path d="M 1700.5 1000.5 C 1700.5 1387.1 1387.1 1700.5 1000.5 1700.5 C 613.9 1700.5 300.5 1387.1 300.5 1000.5 C 300.5 613.9 613.9 300.5 1000.5 300.5 C 1387.1 300.5 1700.5 613.9 1700.5 1000.5 Z "/></g>
<g style="fill: rgb(255,255,255); fill-opacity: 1.0; stroke: none" ><path d="M 1695.5 1000.5 C 1695.5 1384.34 1384.34 1695.5 1000.5 1695.5 C 616.66 1695.5 305.5 1384.34 305.5 1000.5 C 305.5 616.66 616.66 305.5 1000.5 305.5 C 1384.34 305.5 1695.5 616.66 1695.5 1000.5 Z "/></g>
<g style="fill: rgb(0,0,0); fill-opacity: 1.0; stroke: none" ><path d="M 1690.5 1000.5 C 1690.5 1381.58 1381.58 1690.5 1000.5 1690.5 C 619.42 1690.5 310.5 1381.58 310.5 1000.5 C 310.5 619.42 619.42 310.5 1000.5 310.5 C 1381.58 310.5 1690.5 619.42 1690.5 1000.5 Z "/></g>
<g style="fill: rgb(255,255,255); fill-opacity: 1.0; stroke: none" ><path d="M 1685.5 1000.5 C 1685.5 1378.82 1378.82 1685.5 1000.5 1685.5 C 622.18 1685.5 315.5 1378.82 315.5 1000.5 C 315.5 622.18 622.18 315.5 1000.5 315.5 C 1378.82 315.5 1685.5 622.18 1685.5 1000.5 Z "/></g>
<g style="fill: rgb(0,0,0); fill-opacity: 1.0; stroke: none" ><path d="M 1680.5 1000.5 C 1680.5 1376.05 1376.05 1680.5 1000.5 1680.5 C 624.95 1680.5 320.5 1376.05 320.5 1000.5 C 320.5 624.95 624.95 320.5 1000.5 320.5 C 1376.05 320.5 1680.5 624.95 1680.5 1000.5 Z "/></g>
<g style="fill: rgb(255,255,255); fill-opacity: 1.0; stroke: none" ><path d="M 1675.5 1000.5 C 1675.5 1373.29 1373.29 1675.5 1000.5 1675.5 C 627.71 1675.5 325.5 1373.29 325.5 1000.5 C 325.5 627.71 627.71 325.5 1000.5 325.5 C 1373.29 325.5 1675.5 627.71 1675.5 1000.5 Z "/></g>
<g style="fill: rgb(0,0,0); fill-opacity: 1.0; stroke: none" ><path d="M 1670.5 1000.5 C 1670.5 1370.53 1370.53 1670.5 1000.5 1670.5 C 630.47 1670.5 330.5 1370.53 330.5 1000.5 C 330.5 630.47 630.47 330.5 1000.5 330.5 C 1370.53 330.5 1670.5 630.47 1670.5 1000.5 Z "/></g>
<g style="fill: rgb(255,255,255); fill-opacity: 1.0; stroke: none" ><path d="M 1665.5 1000.5 C 1665.5 1367.77 1367.77 1665.5 1000.5 1665.5 C 633.23 1665.5 335.5 1367.77 335.5 1000.5 C 335.5 633.23 633.23 335.5 1000.5 335.5 C 1367.77 335.5 1665.5 633.23 1665.5 1000.5 Z "/></g>
<g style="fill: rgb(0,0,0); fill-opacity: 1.0; stroke: none" ><path d="M 1660.5 1000.5 C 1660.5 1365.01 1365.01 1660.5 1000.5 1660.5 C 635.99 1660.5 340.5 1365.01 340.5 1000.5 C 340.5 635.99 635.99 340.5 1000.5 340.5 C 1365.01 340.5 1660.5 635.99 1660.5 1000.5 Z "/></g>
<g style="fill: rgb(255,255,255); fill-opacity: 1.0; stroke: none" ><path d="M 1655.5 1000.5 C 1655.5 1362.25 1362.25 1655.5 1000.5 1655.5 C 638.75 1655.5 345.5 1362.25 345.5 1000.5 C 345.5 638.75 638.75 345.5 1000.5 345.5 C 1362.25 345.5 1655.5 638.75 1655.5 1000.5 Z "/></g>
<g style="fill: rgb(0,0,0); fill-opacity: 1.0; stroke: none" ><path d="M 1650.5 1000.5 C 1650.5 1359.49 1359.49 1650.5 1000.5 1650.5 C 641.51 1650.5 350.5 1359.49 350.5 1000.5 C 350.5 641.51 641.51 350.5 1000.5 350.5 C 1359.49 350.5 1650.5 641.51 1650.5 1000.5 Z "/></g>
<g style="fill: rgb(255,255,255); fill-opacity: 1.0; stroke: none" ><path d="M 1645.5 1000.5 C 1645.5 1356.72 1356.72 1645.5 1000.5 1645.5 C 644.28 1645.5 355.5 1356.72 355.5 1000.5 C 355.5 644.28 644.28 355.5 1000.5 355.5 C 1356.72 355.5 1645.5 644.28 1645.5 1000.5 Z "/></g>
<g style="fill: rgb(0,0,0); fill-opacity: 1.0; stroke: none" ><path d="M 1640.5 1000.5 C 1640.5 1353.96 1353.96 1640.5 1000.5 1640.5 C 647.04 1640.5 360.5 1353.96 360.5 1000.5 C 360.5 647.04 647.04 360.5 1000.5 360.5 C 1353.96 360.5 1640.5 647.04 1640.5 1000.5 Z "/></g>
<g style="fill: rgb(255,255,255); fill-opacity: 1.0; stroke: none" ><path d="M 1635.5 1000.5 C 1635.5 1351.2 1351.2 1635.5 1000.5 1635.5 C 649.8 1635.5 365.5 1351.2 365.5 1000.5 C 365.5 649.8 649.8 365.5 1000.5 365.5 C 1351.2 365.5 1635.5 649.8 1635.5 1000.5 Z "/></g>
<g style="fill: rgb(0,0,0); fill-opacity: 1.0; stroke: none" ><path d="M 1630.5 1000.5 C 1630.5 1348.44 1348.44 1630.5 1000.5 1630.5 C 652.56 1630.5 370.5 1348.44 370.5 1000.5 C 370.5 652.56 652.56 370.5 1000.5 370.5 C 1348.44 370.5 1630.5 652.56 1630.5 1000.5 Z "/></g>
<g style="fill: rgb(255,255,255); fill-opacity: 1.0; stroke: none" ><path d="M 1625.5 1000.5 C 1625.5 1345.68 1345.68 1625.5 1000.5 1625.5 C 655.32 1625.5 375.5 1345.68 375.5 1000.5 C 375.5 655.32 655.32 375.5 1000.5 375.5 C 1345.68 375.5 1625.5 655.32 1625.5 1000.5 Z "/></g>
<g style="fill: rgb(0,0,0); fill-opacity: 1.0; stroke: none" ><path d="M 1620.5 1000.5 C 1620.5 1342.92 1342.92 1620.5 1000.5 1620.5 C 658.08 1620.5 380.5 1342.92 380.5 1000.5 C 380.5 658.08 658.08 380.5 1000.5 380.5 C 1342.92 380.5 1620.5 658.08 1620.5 1000.5 Z "/></g>
<g style="fill: rgb(255,255,255); fill-opacity: 1.0; stroke: none" ><path d="M 1615.5 1000.5 C 1615.5 1340.16 1340.16 1615.5 1000.5 1615.5 C 660.84 1615.5 385.5 1340.16 385.5 1000.5 C 385.5 660.84 660.84 385.5 1000.5 385.5 C 1340.16 385.5 1615.5 660.84 1615.5 1000.5 Z "/></g>
<g style="fill: rgb(0,0,0); fill-opacity: 1.0; stroke: none" ><path d="M 1610.5 1000.5 C 1610.5 1337.39 1337.39 1610.5 1000.5 1610.5 C 663.61 1610.5 390.5 1337.39 390.5 1000.5 C 390.5 663.61 663.61 390.5 1000.5 390.5 C 1337.39 390.5 1610.5 663.61 1610.5 1000.5 Z "/></g>
<g style="fill: rgb(255,255,255); fill-opacity: 1.0; stroke: none" ><path d="M 1605.5 1000.5 C 1605.5 1334.63 1334.63 1605.5 1000.5 1605.5 C 666.37 1605.5 395.5 1334.63 395.5 1000.5 C 395.5 666.37 666.37 395.5 1000.5 395.5 C 1334.63 395.5 1605.5 666.37 1605.5 1000.5 Z "/></g>
<g style="fill: rgb(0,0,0); fill-opacity: 1.0; stroke: none" ><path d="M 1600.5 1000.5 C 1600.5 1331.87 1331.87 1600.5 1000.5 1600.5 C 669.13 1600.5 400.5 1331.87 400.5 1000.5 C 400.5 669.13 669.13 400.5 1000.5 400.5 C 1331.87 400.5 1600.5 669.13 1600.5 1000.5 Z "/></g>
<g style="fill: rgb(255,255,255); fill-opacity: 1.0; stroke: none" ><path d="M 1595.5 1000.5 C 1595.5 1329.11 1329.11 1595.5 1000.5 1595.5 C 671.89 1595.5 405.5 1329.11 405.5 1000.5 C 405.5 671.89 671.89 405.5 1000.5 405.5 C 1329.11 405.5 1595.5 671.89 1595.5 1000.5 Z "/></g>
<g style="fill: rgb(0,0,0); fill-opacity: 1.0; stroke: none" ><path d="M 1590.5 1000.5 C 1590.5 1326.35 1326.35 1590.5 1000.5 1590.5 C 674.65 1590.5 410.5 1326.35 410.5 1000.5 C 410.5 674.65 674.65 410.5 1000.5 410.5 C 1326.35 410.5 1590.5 674.65 1590.5 1000.5 Z "/></g>
<g style="fill: rgb(255,255,255); fill-opacity: 1.0; stroke: none" ><path d="M 1585.5 1000.5 C 1585.5 1323.59 1323.59 1585.5 1000.5 1585.5 C 677.41 1585.5 415.5 1323.59 415.5 1000.5 C 415.5 677.41 677.41 415.5 1000.5 415.5 C 1323.59 415.5 1585.5 677.41 1585.5 1000.5 Z "/></g>
<g style="fill: rgb(0,0,0); fill-opacity: 1.0; stroke: none" ><path d="M 1580.5 1000.5 C 1580.5 1320.83 1320.83 1580.5 1000.5 1580.5 C 680.17 1580.5 420.5 1320.83 420.5 1000.5 C 420.5 680.17 680.17 420.5 1000.5 420.5 C 1320.83 420.5 1580.5 680.17 1580.5 1000.5 Z "/></g>
<g style="fill: rgb(255,255,255); fill-opacity: 1.0; stroke: none" ><path d="M 1575.5 1000.5 C 1575.5 1318.06 1318.06 1575.5 1000.5 1575.5 C 682.94 1575.5 425.5 1318.06 425.5 1000.5 C 425.5 682.94 682.94 425.5 1000.5 425.5 C 1318.06 425.5 1575.5 682.94 1575.5 1000.5 Z "/></g>
<g style="fill: rgb(0,0,0); fill-opacity: 1.0; stroke: none" ><path d="M 1570.5 1000.5 C 1570.5 1315.3 1315.3 1570.5 1000.5 1570.5 C 685.7 1570.5 430.5 1315.3 430.5 1000.5 C 430.5 685.7 685.7 430.5 1000.5 430.5 C 1315.3 430.5 1570.5 685.7 1570.5 1000.5 Z "/></g>
<g style="fill: rgb(255,255,255); fill-opacity: 1.0; stroke: none" ><path d="M 1565.5 1000.5 C 1565.5 1312.54 1312.54 1565.5 1000.5 1565.5 C 688.46 1565.5 435.5 1312.54 435.5 1000.5 C 435.5 688.46 688.46 435.5 1000.5 435.5 C 1312.54 435.5 1565.5 688.46 1565.5 1000.5 Z "/></g>
<g style="fill: rgb(0,0,0); fill-opacity: 1.0; stroke: none" ><path d="M 1560.5 1000.5 C 1560.5 1309.78 1309.78 1560.5 1000.5 1560.5 C 691.22 1560.5 440.5 1309.78 440.5 1000.5 C 440.5 691.22 691.22 440.5 1000.5 440.5 C 1309.78 440.5 1560.5 691.22 1560.5 1000.5 Z "/></g>
<g style="fill: rgb(255,255,255); fill-opacity: 1.0; stroke: none" ><path d="M 1555.5 1000.5 C 1555.5 1307.02 1307.02 1555.5 1000.5 1555.5 C 693.98 1555.5 445.5 1307.02 445.5 1000.5 C 445.5 693.98 693.98 445.5 1000.5 445.5 C 1307.02 445.5 1555.5 693.98 1555.5 1000.5 Z "/></g>
<g style="fill: rgb(0,0,0); fill-opacity: 1.0; stroke: none" ><path d="M 1550.5 1000.5 C 1550.5 1304.26 1304.26 1550.5 1000.5 1550.5 C 696.74 1550.5 450.5 1304.26 450.5 1000.5 C 450.5 696.74 696.74 450.5 1000.5 450.5 C 1304.26 450.5 1550.5 696.74 1550.5 1000.5 Z "/></g>
<g style="fill: rgb(255,255,255); fill-opacity: 1.0; stroke: none" ><path d="M 1545.5 1000.5 C 1545.5 1301.5 1301.5 1545.5 1000.5 1545.5 C 699.5 1545.5 455.5 1301.5 455.5 1000.5 C 455.5 699.5 699.5 455.5 1000.5 455.5 C 1301.5 455.5 1545.5 699.5 1545.5 1000.5 Z "/></g>
<g style="fill: rgb(0,0,0); fill-opacity: 1.0; stroke: none" ><path d="M 1540.5 1000.5 C 1540.5 1298.73 1298.73 1540.5 1000.5 1540.5 C 702.27 1540.5 460.5 1298.73 460.5 1000.5 C 460.5 702.27 702.27 460.5 1000.5 460.5 C 1298.73 460.5 1540.5 702.27 1540.5 1000.5 Z "/></g>
<g style="fill: rgb(255,255,255); fill-opacity: 1.0; stroke: none" ><path d="M 1535.5 1000.5 C 1535.5 1295.97 1295.97 1535.5 1000.5 1535.5 C 705.03 1535.5 465.5 1295.97 465.5 1000.5 C 465.5 705.03 705.03 465.5 1000.5 465.5 C 1295.97 465.5 1535.5 705.03 1535.5 1000.5 Z "/></g>
<g style="fill: rgb(0,0,0); fill-opacity: 1.0; stroke: none" ><path d="M 1530.5 1000.5 C 1530.5 1293.21 1293.21 1530.5 1000.5 1530.5 C 707.79 1530.5 470.5 1293.21 470.5 1000.5 C 470.5 707.79 707.79 470.5 1000.5 470.5 C 1293.21 470.5 1530.5 707.79 1530.5 1000.5 Z "/></g>
<g style="fill: rgb(255,255,255); fill-opacity: 1.0; stroke: none" ><path d="M 1525.5 1000.5 C 1525.5 1290.45 1290.45 1525.5 1000.5 1525.5 C 710.55 1525.5 475.5 1290.45 475.5 1000.5 C 475.5 710.55 710.55 475.5 1000.5 475.5 C 1290.45 475.5 1525.5 710.55 1525.5 1000.5 Z "/></g>
<g style="fill: rgb(0,0,0); fill-opacity: 1.0; stroke: none" ><path d="M 1520.5 1000.5 C 1520.5 1287.69 1287.69 1520.5 1000.5 1520.5 C 713.31 1520.5 480.5 1287.69 480.5 1000.5 C 480.5 713.31 713.31 480.5 1000.5 480.5 C 1287.69 480.5 1520.5 713.31 1520.5 1000.5 Z "/></g>
<g style="fill: rgb(255,255,255); fill-opacity: 1.0; stroke: none" ><path d="M 1515.5 1000.5 C 1515.5 1284.93 1284.93 1515.5 1000.5 1515.5 C 716.07 1515.5 485.5 1284.93 485.5 1000.5 C 485.5 716.07 716.07 485.5 1000.5 485.5 C 1284.93 485.5 1515.5 716.07 1515.5 1000.5 Z "/></g>
<g style="fill: rgb(0,0,0); fill-opacity: 1.0; stroke: none" ><path d="M 1510.5 1000.5 C 1510.5 1282.17 1282.17 1510.5 1000.5 1510.5 C 718.83 1510.5 490.5 1282.17 490.5 1000.5 C 490.5 718.83 718.83 490.5 1000.5 490.5 C 1282.17 490.5 1510.5 718.83 1510.5 1000.5 Z "/></g>
<g style="fill: rgb(255,255,255); fill-opacity: 1.0; stroke: none" ><path d="M 1505.5 1000.5 C 1505.5 1279.4 1279.4 1505.5 1000.5 1505.5 C 721.6 1505.5 495.5 1279.4 495.5 1000.5 C 495.5 721.6 721.6 495.5 1000.5 495.5 C 1279.4 495.5 1505.5 721.6 1505.5 1000.5 Z "/></g>
<g style="fill: rgb(0,0,0); fill-opacity: 1.0; stroke: none" ><path d="M 1500.5 1000.5 C 1500.5 1276.64 1276.64 1500.5 1000.5 1500.5 C 724.36 1500.5 500.5 1276.64 500.5 1000.5 C 500.5 724.36 724.36 500.5 1000.5 500.5 C 1276.64 500.5 1500.5 724.36 1500.5 1000.5 Z "/></g>
<g style="fill: rgb(255,255,255); fill-opacity: 1.0; stroke: none" ><path d="M 1495.5 1000.5 C 1495.5 1273.88 1273.88 1495.5 1000.5 1495.5 C 727.12 1495.5 505.5 1273.88 505.5 1000.5 C 505.5 727.12 727.12 505.5 1000.5 505.5 C 1273.88 505.5 1495.5 727.12 1495.5 1000.5 Z "/></g>
<g style="fill: rgb(0,0,0); fill-opacity: 1.0; stroke: none" ><path d="M 1490.5 1000.5 C 1490.5 1271.12 1271.12 1490.5 1000.5 1490.5 C 729.88 1490.5 510.5 1271.12 510.5 1000.5 C 510.5 729.88 729.88 510.5 1000.5 510.5 C 1271.12 510.5 1490.5 729.88 1490.5 1000.5 Z "/></g>
<g style="fill: rgb(255,255,255); fill-opacity: 1.0; stroke: none" ><path d="M 1485.5 1000.5 C 1485.5 1268.36 1268.36 1485.5 1000.5 1485.5 C 732.64 1485.5 515.5 1268.36 515.5 1000.5 C 515.5 732.64 732.64 515.5 1000.5 515.5 C 1268.36 515.5 1485.5 732.64 1485.5 1000.5 Z "/></g>
<g style="fill: rgb(0,0,0); fill-opacity: 1.0; stroke: none" ><path d="M 1480.5 1000.5 C 1480.5 1265.6 1265.6 1480.5 1000.5 1480.5 C 735.4 1480.5 520.5 1265.6 520.5 1000.5 C 520.5 735.4 735.4 520.5 1000.5 520.5 C 1265.6 520.5 1480.5 735.4 1480.5 1000.5 Z "/></g>
<g style="fill: rgb(255,255,255); fill-opacity: 1.0; stroke: none" ><path d="M 1475.5 1000.5 C 1475.5 1262.84 1262.84 1475.5 1000.5 1475.5 C 738.16 1475.5 525.5 1262.84 525.5 1000.5 C 525.5 738.16 738.16 525.5 1000.5 525.5 C 1262.84 525.5 1475.5 738.16 1475.5 1000.5 Z "/></g>
<g style="fill: rgb(0,0,0); fill-opacity: 1.0; stroke: none" ><path d="M 1470.5 1000.5 C 1470.5 1260.07 1260.07 1470.5 1000.5 1470.5 C 740.93 1470.5 530.5 1260.07 530.5 1000.5 C 530.5 740.93 740.93 530.5 1000.5 530.5 C 1260.07 530.5 1470.5 740.93 1470.5 1000.5 Z "/></g>
<g style="fill: rgb(255,255,255); fill-opacity: 1.0; stroke: none" ><path d="M 1465.5 1000.5 C 1465.5 1257.31 1257.31 1465.5 1000.5 1465.5 C 743.69 1465.5 535.5 1257.31 535.5 1000.5 C 535.5 743.69 743.69 535.5 1000.5 535.5 C 1257.31 535.5 1465.5 743.69 1465.5 1000.5 Z "/></g>
<g style="fill: rgb(0,0,0); fill-opacity: 1.0; stroke: none" ><path d="M 1460.5 1000.5 C 1460.5 1254.55 1254.55 1460.5 1000.5 1460.5 C 746.45 1460.5 540.5 1254.55 540.5 1000.5 C 540.5 746.45 746.45 540.5 1000.5 540.5 C 1254.55 540.5 1460.5 746.45 1460.5 1000.5 Z "/></g>
<g style="fill: rgb(255,255,255); fill-opacity: 1.0; stroke: none" ><path d="M 1455.5 1000.5 C 1455.5 1251.79 1251.79 1455.5 1000.5 1455.5 C 749.21 1455.5 545.5 1251.79 545.5 1000.5 C 545.5 749.21 749.21 545.5 1000.5 545.5 C 1251.79 545.5 1455.5 749.21 1455.5 1000.5 Z "/></g>
<g style="fill: rgb(0,0,0); fill-opacity: 1.0; stroke: none" ><path d="M 1450.5 1000.5 C 1450.5 1249.03 1249.03 1450.5 1000.5 1450.5 C 751.97 1450.5 550.5 1249.03 550.5 1000.5 C 550.5 751.97 751.97 550.5 1000.5 550.5 C 1249.03 550.5 1450.5 751.97 1450.5 1000.5 Z "/></g>
<g style="fill: rgb(255,255,255); fill-opacity: 1.0; stroke: none" ><path d="M 1445.5 1000.5 C 1445.5 1246.27 1246.27 1445.5 1000.5 1445.5 C 754.73 1445.5 555.5 1246.27 555.5 1000.5 C 555.5 754.73 754.73 555.5 1000.5 555.5 C 1246.27 555.5 1445.5 754.73 1445.5 1000.5 Z "/></g>
<g style="fill: rgb(0,0,0); fill-opacity: 1.0; stroke: none" ><path d="M 1440.5 1000.5 C 1440.5 1243.51 1243.51 1440.5 1000.5 1440.5 C 757.49 1440.5 560.5 1243.51 560.5 1000.5 C 560.5 757.49 757.49 560.5 1000.5 560.5 C 1243.51 560.5 1440.5 757.49 1440.5 1000.5 Z "/></g>
<g style="fill: rgb(255,255,255); fill-opacity: 1.0; stroke: none" ><path d="M 1435.5 1000.5 C 1435.5 1240.74 1240.74 1435.5 1000.5 1435.5 C 760.26 1435.5 565.5 1240.74 565.5 1000.5 C 565.5 760.26 760.26 565.5 1000.5 565.5 C 1240.74 565.5 1435.5 760.26 1435.5 1000.5 Z "/></g>
<g style="fill: rgb(0,0,0); fill-opacity: 1.0; stroke: none" ><path d="M 1430.5 1000.5 C 1430.5 1237.98 1237.98 1430.5 1000.5 1430.5 C 763.02 1430.5 570.5 1237.98 570.5 1000.5 C 570.5 763.02 763.02 570.5 1000.5 570.5 C 1237.98 570.5 1430.5 763.02 1430.5 1000.5 Z "/></g>
<g style="fill: rgb(255,255,255); fill-opacity: 1.0; stroke: none" ><path d="M 1425.5 1000.5 C 1425.5 1235.22 1235.22 1425.5 1000.5 1425.5 C 765.78 1425.5 575.5 1235.22 575.5 1000.5 C 575.5 765.78 765.78 575.5 1000.5 575.5 C 1235.22 575.5 1425.5 765.78 1425.5 1000.5 Z "/></g>
<g style="fill: rgb(0,0,0); fill-opacity: 1.0; stroke: none" ><path d="M 1420.5 1000.5 C 1420.5 1232.46 1232.46 1420.5 1000.5 1420.5 C 768.54 1420.5 580.5 1232.46 580.5 1000.5 C 580.5 768.54 768.54 580.5 1000.5 580.5 C 1232.46 580.5 1420.5 768.54 1420.5 1000.5 Z "/></g>
<g style="fill: rgb(255,255,255); fill-opacity: 1.0; stroke: none" ><path d="M 1415.5 1000.5 C 1415.5 1229.7 1229.7 1415.5 1000.5 1415.5 C 771.3 1415.5 585.5 1229.7 585.5 1000.5 C 585.5 771.3 771.3 585.5 1000.5 585.5 C 1229.7 585.5 1415.5 771.3 1415.5 1000.5 Z "/></g>
<g style="fill: rgb(0,0,0); fill-opacity: 1.0; stroke: none" ><path d="M 1410.5 1000.5 C 1410.5 1226.94 1226.94 1410.5 1000.5 1410.5 C 774.06 1410.5 590.5 1226.94 590.5 1000.5 C 590.5 774.06 774.06 590.5 1000.5 590.5 C 1226.94 590.5 1410.5 774.06 1410.5 1000.5 Z "/></g>
<g style="fill: rgb(255,255,255); fill-opacity: 1.0; stroke: none" ><path d="M 1405.5 1000.5 C 1405.5 1224.18 1224.18 1405.5 1000.5 1405.5 C 776.82 1405.5 595.5 1224.18 595.5 1000.5 C 595.5 776.82 776.82 595.5 1000.5 595.5 C 1224.18 595.5 1405.5 776.82 1405.5 1000.5 Z "/></g>
<g style="fill: rgb(0,0,0); fill-opacity: 1.0; stroke: none" ><path d="M 1400.5 1000.5 C 1400.5 1221.41 1221.41 1400.5 1000.5 1400.5 C 779.59 1400.5 600.5 1221.41 600.5 1000.5 C 600.5 779.59 779.59 600.5 1000.5 600.5 C 1221.41 600.5 1400.5 779.59 1400.5 1000.5 Z "/></g>
<g style="fill: rgb(255,255,255); fill-opacity: 1.0; stroke: none" ><path d="M 1395.5 1000.5 C 1395.5 1218.65 1218.65 1395.5 1000.5 1395.5 C 782.35 1395.5 605.5 1218.65 605.5 1000.5 C 605.5 782.35 782.35 605.5 1000.5 605.5 C 1218.65 605.5 1395.5 782.35 1395.5 1000.5 Z "/></g>
<g style="fill: rgb(0,0,0); fill-opacity: 1.0; stroke: none" ><path d="M 1390.5 1000.5 C 1390.5 1215.89 1215.89 1390.5 1000.5 1390.5 C 785.11 1390.5 610.5 1215.89 610.5 1000.5 C 610.5 785.11 785.11 610.5 1000.5 610.5 C 1215.89 610.5 1390.5 785.11 1390.5 1000.5 Z "/></g>
<g style="fill: rgb(255,255,255); fill-opacity: 1.0; stroke: none" ><path d="M 1385.5 1000.5 C 1385.5 1213.13 1213.13 1385.5 1000.5 1385.5 C 787.87 1385.5 615.5 1213.13 615.5 1000.5 C 615.5 787.87 787.87 615.5 1000.5 615.5 C 1213.13 615.5 1385.5 787.87 1385.5 1000.5 Z "/></g>
<g style="fill: rgb(0,0,0); fill-opacity: 1.0; stroke: none" ><path d="M 1380.5 1000.5 C 1380.5 1210.37 1210.37 1380.5 1000.5 1380.5 C 790.63 1380.5 620.5 1210.37 620.5 1000.5 C 620.5 790.63 790.63 620.5 1000.5 620.5 C 1210.37 620.5 1380.5 790.63 1380.5 1000.5 Z "/></g>
<g style="fill: rgb(255,255,255); fill-opacity: 1.0; stroke: none" ><path d="M 1375.5 1000.5 C 1375.5 1207.61 1207.61 1375.5 1000.5 1375.5 C 793.39 1375.5 625.5 1207.61 625.5 1000.5 C 625.5 793.39 793.39 625.5 1000.5 625.5 C 1207.61 625.5 1375.5 793.39 1375.5 1000.5 Z "/></g>
<g style="fill: rgb(0,0,0); fill-opacity: 1.0; stroke: none" ><path d="M 1370.5 1000.5 C 1370.5 1204.85 1204.85 1370.5 1000.5 1370.5 C 796.15 1370.5 630.5 1204.85 630.5 1000.5 C 630.5 796.15 796.15 630.5 1000.5 630.5 C 1204.85 630.5 1370.5 796.15 1370.5 1000.5 Z "/></g>
<g style="fill: rgb(255,255,255); fill-opacity: 1.0; stroke: none" ><path d="M 1365.5 1000.5 C 1365.5 1202.08 1202.08 1365.5 1000.5 1365.5 C 798.92 1365.5 635.5 1202.08 635.5 1000.5 C 635.5 798.92 798.92 635.5 1000.5 635.5 C 1202.08 635.5 1365.5 798.92 1365.5 1000.5 Z "/></g>
<g style="fill: rgb(0,0,0); fill-opacity: 1.0; stroke: none" ><path d="M 1360.5 1000.5 C 1360.5 1199.32 1199.32 1360.5 1000.5 1360.5 C 801.68 1360.5 640.5 1199.32 640.5 1000.5 C 640.5 801.68 801.68 640.5 1000.5 640.5 C 1199.32 640.5 1360.5 801.68 1360.5 1000.5 Z "/></g>
<g style="fill: rgb(255,255,255); fill-opacity: 1.0; stroke: none" ><path d="M 1355.5 1000.5 C 1355.5 1196.56 1196.56 1355.5 1000.5 1355.5 C 804.44 1355.5 645.5 1196.56 645.5 1000.5 C 645.5 804.44 804.44 645.5 1000.5 645.5 C 1196.56 645.5 1355.5 804.44 1355.5 1000.5 Z "/></g>
<g style="fill: rgb(0,0,0); fill-opacity: 1.0; stroke: none" ><path d="M 1350.5 1000.5 C 1350.5 1193.8 1193.8 1350.5 1000.5 1350.5 C 807.2 1350.5 650.5 1193.8 650.5 1000.5 C 650.5 807.2 807.2 650.5 1000.5 650.5 C 1193.8 650.5 1350.5 807.2 1350.5 1000.5 Z "/></g>
<g style="fill: rgb(255,255,255); fill-opacity: 1.0; stroke: none" ><path d="M 1345.5 1000.5 C 1345.5 1191.04 1191.04 1345.5 1000.5 1345.5 C 809.96 1345.5 655.5 1191.04 655.5 1000.5 C 655.5 809.96 809.96 655.5 1000.5 655.5 C 1191.04 655.5 1345.5 809.96 1345.5 1000.5 Z "/></g>
<g style="fill: rgb(0,0,0); fill-opacity: 1.0; stroke: none" ><path d="M 1340.5 1000.5 C 1340.5 1188.28 1188.28 1340.5 1000.5 1340.5 C 812.72 1340.5 660.5 1188.28 660.5 1000.5 C 660.5 812.72 812.72 660.5 1000.5 660.5 C 1188.28 660.5 1340.5 812.72 1340.5 1000.5 Z "/></g>
<g style="fill: rgb(255,255,255); fill-opacity: 1.0; stroke: none" ><path d="M 1335.5 1000.5 C 1335.5 1185.52 1185.52 1335.5 1000.5 1335.5 C 815.48 1335.5 665.5 1185.52 665.5 1000.5 C 665.5 815.48 815.48 665.5 1000.5 665.5 C 1185.52 665.5 1335.5 815.48 1335.5 1000.5 Z "/></g>
<g style="fill: rgb(0,0,0); fill-opacity: 1.0; stroke: none" ><path d="M 1330.5 1000.5 C 1330.5 1182.75 1182.75 1330.5 1000.5 1330.5 C 818.25 1330.5 670.5 1182.75 670.5 1000.5 C 670.5 818.25 818.25 670.5 1000.5 670.5 C 1182.75 670.5 1330.5 818.25 1330.5 1000.5 Z "/></g>
<g style="fill: rgb(255,255,255); fill-opacity: 1.0; stroke: none" ><path d="M 1325.5 1000.5 C 1325.5 1179.99 1179.99 1325.5 1000.5 1325.5 C 821.01 1325.5 675.5 1179.99 675.5 1000.5 C 675.5 821.01 821.01 675.5 1000.5 675.5 C 1179.99 675.5 1325.5 821.01 1325.5 1000.5 Z "/></g>
<g style="fill: rgb(0,0,0); fill-opacity: 1.0; stroke: none" ><path d="M 1320.5 1000.5 C 1320.5 1177.23 1177.23 1320.5 1000.5 1320.5 C 823.77 1320.5 680.5 1177.23 680.5 1000.5 C 680.5 823.77 823.77 680.5 1000.5 680.5 C 1177.23 680.5 1320.5 823.77 1320.5 1000.5 Z "/></g>
<g style="fill: rgb(255,255,255); fill-opacity: 1.0; stroke: none" ><path d="M 1315.5 1000.5 C 1315.5 1174.47 1174.47 1315.5 1000.5 1315.5 C 826.53 1315.5 685.5 1174.47 685.5 1000.5 C 685.5 826.53 826.53 685.5 1000.5 685.5 C 1174.47 685.5 1315.5 826.53 1315.5 1000.5 Z "/></g>
<g style="fill: rgb(0,0,0); fill-opacity: 1.0; stroke: none" ><path d="M 1310.5 1000.5 C 1310.5 1171.71 1171.71 1310.5 1000.5 1310.5 C 829.29 1310.5 690.5 1171.71 690.5 1000.5 C 690.5 829.29 829.29 690.5 1000.5 690.5 C 1171.71 690.5 1310.5 829.29 1310.5 1000.5 Z "/></g>
<g style="fill: rgb(255,255,255); fill-opacity: 1.0; stroke: none" ><path d="M 1305.5 1000.5 C 1305.5 1168.95 1168.95 1305.5 1000.5 1305.5 C 832.05 1305.5 695.5 1168.95 695.5 1000.5 C 695.5 832.05 832.05 695.5 1000.5 695.5 C 1168.95 695.5 1305.5 832.05 1305.5 1000.5 Z "/></g>
<g style="fill: rgb(0,0,0); fill-opacity: 1.0; stroke: none" ><path d="M 1300.5 1000.5 C 1300.5 1166.19 1166.19 1300.5 1000.5 1300.5 C 834.81 1300.5 700.5 1166.19 700.5 1000.5 C 700.5 834.81 834.81 700.5 1000.5 700.5 C 1166.19 700.5 1300.5 834.81 1300.5 1000.5 Z "/></g>
<g style="fill: rgb(255,255,255); fill-opacity: 1.0; stroke: none" ><path d="M 1295.5 1000.5 C 1295.5 1163.42 1163.42 1295.5 1000.5 1295.5 C 837.58 1295.5 705.5 1163.42 705.5 1000.5 C 705.5 837.58 837.58 705.5 1000.5 705.5 C 1163.42 705.5 1295.5 837.58 1295.5 1000.5 Z "/></g>
<g style="fill: rgb(0,0,0); fill-opacity: 1.0; stroke: none" ><path d="M 1290.5 1000.5 C 1290.5 1160.66 1160.66 1290.5 1000.5 1290.5 C 840.34 1290.5 710.5 1160.66 710.5 1000.5 C 710.5 840.34 840.34 710.5 1000.5 710.5 C 1160.66 710.5 1290.5 840.34 1290.5 1000.5 Z "/></g>
<g style="fill: rgb(255,255,255); fill-opacity: 1.0; stroke: none" ><path d="M 1285.5 1000.5 C 1285.5 1157.9 1157.9 1285.5 1000.5 1285.5 C 843.1 1285.5 715.5 1157.9 715.5 1000.5 C 715.5 843.1 843.1 715.5 1000.5 715.5 C 1157.9 715.5 1285.5 843.1 1285.5 1000.5 Z "/></g>
<g style="fill: rgb(0,0,0); fill-opacity: 1.0; stroke: none" ><path d="M 1280.5 1000.5 C 1280.5 1155.14 1155.14 1280.5 1000.5 1280.5 C 845.86 1280.5 720.5 1155.14 720.5 1000.5 C 720.5 845.86 845.86 720.5 1000.5 720.5 C 1155.14 720.5 1280.5 845.86 1280.5 1000.5 Z "/></g>
<g style="fill: rgb(255,255,255); fill-opacity: 1.0; stroke: none" ><path d="M 1275.5 1000.5 C 1275.5 1152.38 1152.38 1275.5 1000.5 1275.5 C 848.62 1275.5 725.5 1152.38 725.5 1000.5 C 725.5 848.62 848.62 725.5 1000.5 725.5 C 1152.38 725.5 1275.5 848.62 1275.5 1000.5 Z "/></g>
<g style="fill: rgb(0,0,0); fill-opacity: 1.0; stroke: none" ><path d="M 1270.5 1000.5 C 1270.5 1149.62 1149.62 1270.5 1000.5 1270.5 C 851.38 1270.5 730.5 1149.62 730.5 1000.5 C 730.5 851.38 851.38 730.5 1000.5 730.5 C 1149.62 730.5 1270.5 851.38 1270.5 1000.5 Z "/></g>
<g style="fill: rgb(255,255,255); fill-opacity: 1.0; stroke: none" ><path d="M 1265.5 1000.5 C 1265.5 1146.86 1146.86 1265.5 1000.5 1265.5 C 854.14 1265.5 735.5 1146.86 735.5 1000.5 C 735.5 854.14 854.14 735.5 1000.5 735.5 C 1146.86 735.5 1265.5 854.14 1265.5 1000.5 Z "/></g>
<g style="fill: rgb(0,0,0); fill-opacity: 1.0; stroke: none" ><path d="M 1260.5 1000.5 C 1260.5 1144.09 1144.09 1260.5 1000.5 1260.5 C 856.91 1260.5 740.5 1144.09 740.5 1000.5 C 740.5 856.91 856.91 740.5 1000.5 740.5 C 1144.09 740.5 1260.5 856.91 1260.5 1000.5 Z "/></g>
<g style="fill: rgb(255,255,255); fill-opacity: 1.0; stroke: none" ><path d="M 1255.5 1000.5 C 1255.5 1141.33 1141.33 1255.5 1000.5 1255.5 C 859.67 1255.5 745.5 1141.33 745.5 1000.5 C 745.5 859.67 859.67 745.5 1000.5 745.5 C 1141.33 745.5 1255.5 859.67 1255.5 1000.5 Z "/></g>
<g style="fill: rgb(0,0,0); fill-opacity: 1.0; stroke: none" ><path d="M 1250.5 1000.5 C 1250.5 1138.57 1138.57 1250.5 1000.5 1250.5 C 862.43 1250.5 750.5 1138.57 750.5 1000.5 C 750.5 862.43 862.43 750.5 1000.5 750.5 C 1138.57 750.5 1250.5 862.43 1250.5 1000.5 Z "/></g>
<g style="fill: rgb(255,255,255); fill-opacity: 1.0; stroke: none" ><path d="M 1245.5 1000.5 C 1245.5 1135.81 1135.81 1245.5 1000.5 1245.5 C 865.19 1245.5 755.5 1135.81 755.5 1000.5 C 755.5 865.19 865.19 755.5 1000.5 755.5 C 1135.81 755.5 1245.5 865.19 1245.5 1000.5 Z "/></g>
<g style="fill: rgb(0,0,0); fill-opacity: 1.0; stroke: none" ><path d="M 1240.5 1000.5 C 1240.5 1133.05 1133.05 1240.5 1000.5 1240.5 C 867.95 1240.5 760.5 1133.05 760.5 1000.5 C 760.5 867.95 867.95 760.5 1000.5 760.5 C 1133.05 760.5 1240.5 867.95 1240.5 1000.5 Z "/></g>
<g style="fill: rgb(255,255,255); fill-opacity: 1.0; stroke: none" ><path d="M 1235.5 1000.5 C 1235.5 1130.29 1130.29 1235.5 1000.5 1235.5 C 870.71 1235.5 765.5 1130.29 765.5 1000.5 C 765.5 870.71 870.71 765.5 1000.5 765.5 C 1130.29 765.5 1235.5 870.71 1235.5 1000.5 Z "/></g>
<g style="fill: rgb(0,0,0); fill-opacity: 1.0; stroke: none" ><path d="M 1230.5 1000.5 C 1230.5 1127.53 1127.53 1230.5 1000.5 1230.5 C 873.47 1230.5 770.5 1127.53 770.5 1000.5 C 770.5 873.47 873.47 770.5 1000.5 770.5 C 1127.53 770.5 1230.5 873.47 1230.5 1000.5 Z "/></g>
<g style="fill: rgb(255,255,255); fill-opacity: 1.0; stroke: none" ><path d="M 1225.5 1000.5 C 1225.5 1124.76 1124.76 1225.5 1000.5 1225.5 C 876.24 1225.5 775.5 1124.76 775.5 1000.5 C 775.5 876.24 876.24 775.5 1000.5 775.5 C 1124.76 775.5 1225.5 876.24 1225.5 1000.5 Z "/></g>
<g style="fill: rgb(0,0,0); fill-opacity: 1.0; stroke: none" ><path d="M 1220.5 1000.5 C 1220.5 1122 1122 1220.5 1000.5 1220.5 C 879 1220.5 780.5 1122 780.5 1000.5 C 780.5 879 879 780.5 1000.5 780.5 C 1122 780.5 1220.5 879 1220.5 1000.5 Z "/></g>
<g style="fill: rgb(255,255,255); fill-opacity: 1.0; stroke: none" ><path d="M 1215.5 1000.5 C 1215.5 1119.24 1119.24 1215.5 1000.5 1215.5 C 881.76 1215.5 785.5 1119.24 785.5 1000.5 C 785.5 881.76 881.76 785.5 1000.5 785.5 C 1119.24 785.5 1215.5 881.76 1215.5 1000.5 Z "/></g>
<g style="fill: rgb(0,0,0); fill-opacity: 1.0; stroke: none" ><path d="M 1210.5 1000.5 C 1210.5 1116.48 1116.48 1210.5 1000.5 1210.5 C 884.52 1210.5 790.5 1116.48 790.5 1000.5 C 790.5 884.52 884.52 790.5 1000.5 790.5 C 1116.48 790.5 1210.5 884.52 1210.5 1000.5 Z "/></g>
<g style="fill: rgb(255,255,255); fill-opacity: 1.0; stroke: none" ><path d="M 1205.5 1000.5 C 1205.5 1113.72 1113.72 1205.5 1000.5 1205.5 C 887.28 1205.5 795.5 1113.72 795.5 1000.5 C 795.5 887.28 887.28 795.5 1000.5 795.5 C 1113.72 795.5 1205.5 887.28 1205.5 1000.5 Z "/></g>
<g style="fill: rgb(0,0,0); fill-opacity: 1.0; stroke: none" ><path d="M 1200.5 1000.5 C 1200.5 1110.96 1110.96 1200.5 1000.5 1200.5 C 890.04 1200.5 800.5 1110.96 800.5 1000.5 C 800.5 890.04 890.04 800.5 1000.5 800.5 C 1110.96 800.5 1200.5 890.04 1200.5 1000.5 Z "/></g>
<g style="fill: rgb(255,255,255); fill-opacity: 1.0; stroke: none" ><path d="M 1195.5 1000.5 C 1195.5 1108.2 1108.2 1195.5 1000.5 1195.5 C 892.8 1195.5 805.5 1108.2 805.5 1000.5 C 805.5 892.8 892.8 805.5 1000.5 805.5 C 1108.2 805.5 1195.5 892.8 1195.5 1000.5 Z "/></g>
<g style="fill: rgb(0,0,0); fill-opacity: 1.0; stroke: none" ><path d="M 1190.5 1000.5 C 1190.5 1105.43 1105.43 1190.5 1000.5 1190.5 C 895.57 1190.5 810.5 1105.43 810.5 1000.5 C 810.5 895.57 895.57 810.5 1000.5 810.5 C 1105.43 810.5 1190.5 895.57 1190.5 1000.5 Z "/></g>
<g style="fill: rgb(255,255,255); fill-opacity: 1.0; stroke: none" ><path d="M 1185.5 1000.5 C 1185.5 1102.67 1102.67 1185.5 1000.5 1185.5 C 898.33 1185.5 815.5 1102.67 815.5 1000.5 C 815.5 898.33 898.33 815.5 1000.5 815.5 C 1102.67 815.5 1185.5 898.33 1185.5 1000.5 Z "/></g>
<g style="fill: rgb(0,0,0); fill-opacity: 1.0; stroke: none" ><path d="M 1180.5 1000.5 C 1180.5 1099.91 1099.91 1180.5 1000.5 1180.5 C 901.09 1180.5 820.5 1099.91 820.5 1000.5 C 820.5 901.09 901.09 820.5 1000.5 820.5 C 1099.91 820.5 1180.5 901.09 1180.5 1000.5 Z "/></g>
<g style="fill: rgb(255,255,255); fill-opacity: 1.0; stroke: none" ><path d="M 1175.5 1000.5 C 1175.5 1097.15 1097.15 1175.5 1000.5 1175.5 C 903.85 1175.5 825.5 1097.15 825.5 1000.5 C 825.5 903.85 903.85 825.5 1000.5 825.5 C 1097.15 825.5 1175.5 903.85 1175.5 1000.5 Z "/></g>
<g style="fill: rgb(0,0,0); fill-opacity: 1.0; stroke: none" ><path d="M 1170.5 1000.5 C 1170.5 1094.39 1094.39 1170.5 1000.5 1170.5 C 906.61 1170.5 830.5 1094.39 830.5 1000.5 C 830.5 906.61 906.61 830.5 1000.5 830.5 C 1094.39 830.5 1170.5 906.61 1170.5 1000.5 Z "/></g>
<g style="fill: rgb(255,255,255); fill-opacity: 1.0; stroke: none" ><path d="M 1165.5 1000.5 C 1165.5 1091.63 1091.63 1165.5 1000.5 1165.5 C 909.37 1165.5 835.5 1091.63 835.5 1000.5 C 835.5 909.37 909.37 835.5 1000.5 835.5 C 1091.63 835.5 1165.5 909.37 1165.5 1000.5 Z "/></g>
<g style="fill: rgb(0,0,0); fill-opacity: 1.0; stroke: none" ><path d="M 1160.5 1000.5 C 1160.5 1088.87 1088.87 1160.5 1000.5 1160.5 C 912.13 1160.5 840.5 1088.87 840.5 1000.5 C 840.5 912.13 912.13 840.5 1000.5 840.5 C 1088.87 840.5 1160.5 912.13 1160.5 1000.5 Z "/></g>
<g style="fill: rgb(255,255,255); fill-opacity: 1.0; stroke: none" ><path d="M 1155.5 1000.5 C 1155.5 1086.1 1086.1 1155.5 1000.5 1155.5 C 914.9 1155.5 845.5 1086.1 845.5 1000.5 C 845.5 914.9 914.9 845.5 1000.5 845.5 C 1086.1 845.5 1155.5 914.9 1155.5 1000.5 Z "/></g>
<g style="fill: rgb(0,0,0); fill-opacity: 1.0; stroke: none" ><path d="M 1150.5 1000.5 C 1150.5 1083.34 1083.34 1150.5 1000.5 1150.5 C 917.66 1150.5 850.5 1083.34 850.5 1000.5 C 850.5 917.66 917.66 850.5 1000.5 850.5 C 1083.34 850.5 1150.5 917.66 1150.5 1000.5 Z "/></g>
<g style="fill: rgb(255,255,255); fill-opacity: 1.0; stroke: none" ><path d="M 1145.5 1000.5 C 1145.5 1080.58 1080.58 1145.5 1000.5 1145.5 C 920.42 1145.5 855.5 1080.58 855.5 1000.5 C 855.5 920.42 920.42 855.5 1000.5 855.5 C 1080.58 855.5 1145.5 920.42 1145.5 1000.5 Z "/></g>
<g style="fill: rgb(0,0,0); fill-opacity: 1.0; stroke: none" ><path d="M 1140.5 1000.5 C 1140.5 1077.82 1077.82 1140.5 1000.5 1140.5 C 923.18 1140.5 860.5 1077.82 860.5 1000.5 C 860.5 923.18 923.18 860.5 1000.5 860.5 C 1077.82 860.5 1140.5 923.18 1140.5 1000.5 Z "/></g>
<g style="fill: rgb(255,255,255); fill-opacity: 1.0; stroke: none" ><path d="M 1135.5 1000.5 C 1135.5 1075.06 1075.06 1135.5 1000.5 1135.5 C 925.94 1135.5 865.5 1075.06 865.5 1000.5 C 865.5 925.94 925.94 865.5 1000.5 865.5 C 1075.06 865.5 1135.5 925.94 1135.5 1000.5 Z "/></g>
<g style="fill: rgb(0,0,0); fill-opacity: 1.0; stroke: none" ><path d="M 1130.5 1000.5 C 1130.5 1072.3 1072.3 1130.5 1000.5 1130.5 C 928.7 1130.5 870.5 1072.3 870.5 1000.5 C 870.5 928.7 928.7 870.5 1000.5 870.5 C 1072.3 870.5 1130.5 928.7 1130.5 1000.5 Z "/></g>
<g style="fill: rgb(255,255,255); fill-opacity: 1.0; stroke: none" ><path d="M 1125.5 1000.5 C 1125.5 1069.54 1069.54 1125.5 1000.5 1125.5 C 931.46 1125.5 875.5 1069.54 875.5 1000.5 C 875.5 931.46 931.46 875.5 1000.5 875.5 C 1069.54 875.5 1125.5 931.46 1125.5 1000.5 Z "/></g>
<g style="fill: rgb(0,0,0); fill-opacity: 1.0; stroke: none" ><path d="M 1120.5 1000.5 C 1120.5 1066.77 1066.77 1120.5 1000.5 1120.5 C 934.23 1120.5 880.5 1066.77 880.5 1000.5 C 880.5 934.23 934.23 880.5 1000.5 880.5 C 1066.77 880.5 1120.5 934.23 1120.5 1000.5 Z "/></g>
<g style="fill: rgb(255,255,255); fill-opacity: 1.0; stroke: none" ><path d="M 1115.5 1000.5 C 1115.5 1064.01 1064.01 1115.5 1000.5 1115.5 C 936.99 1115.5 885.5 1064.01 885.5 1000.5 C 885.5 936.99 936.99 885.5 1000.5 885.5 C 1064.01 885.5 1115.5 936.99 1115.5 1000.5 Z "/></g>
<g style="fill: rgb(0,0,0); fill-opacity: 1.0; stroke: none" ><path d="M 1110.5 1000.5 C 1110.5 1061.25 1061.25 1110.5 1000.5 1110.5 C 939.75 1110.5 890.5 1061.25 890.5 1000.5 C 890.5 939.75 939.75 890.5 1000.5 890.5 C 1061.25 890.5 1110.5 939.75 1110.5 1000.5 Z "/></g>
<g style="fill: rgb(255,255,255); fill-opacity: 1.0; stroke: none" ><path d="M 1105.5 1000.5 C 1105.5 1058.49 1058.49 1105.5 1000.5 1105.5 C 942.51 1105.5 895.5 1058.49 895.5 1000.5 C 895.5 942.51 942.51 895.5 1000.5 895.5 C 1058.49 895.5 1105.5 942.51 1105.5 1000.5 Z "/></g>
<g style="fill: rgb(0,0,0); fill-opacity: 1.0; stroke: none" ><path d="M 1100.5 1000.5 C 1100.5 1055.73 1055.73 1100.5 1000.5 1100.5 C 945.27 1100.5 900.5 1055.73 900.5 1000.5 C 900.5 945.27 945.27 900.5 1000.5 900.5 C 1055.73 900.5 1100.5 945.27 1100.5 1000.5 Z "/></g>
<g style="fill: rgb(255,255,255); fill-opacity: 1.0; stroke: none" ><path d="M 1095.5 1000.5 C 1095.5 1052.97 1052.97 1095.5 1000.5 1095.5 C 948.03 1095.5 905.5 1052.97 905.5 1000.5 C 905.5 948.03 948.03 905.5 1000.5 905.5 C 1052.97 905.5 1095.5 948.03 1095.5 1000.5 Z "/></g>
<g style="fill: rgb(0,0,0); fill-opacity: 1.0; stroke: none" ><path d="M 1090.5 1000.5 C 1090.5 1050.21 1050.21 1090.5 1000.5 1090.5 C 950.79 1090.5 910.5 1050.21 910.5 1000.5 C 910.5 950.79 950.79 910.5 1000.5 910.5 C 1050.21 910.5 1090.5 950.79 1090.5 1000.5 Z "/></g>
<g style="fill: rgb(255,255,255); fill-opacity: 1.0; stroke: none" ><path d="M 1085.5 1000.5 C 1085.5 1047.44 1047.44 1085.5 1000.5 1085.5 C 953.56 1085.5 915.5 1047.44 915.5 1000.5 C 915.5 953.56 953.56 915.5 1000.5 915.5 C 1047.44 915.5 1085.5 953.56 1085.5 1000.5 Z "/></g>
<g style="fill: rgb(0,0,0); fill-opacity: 1.0; stroke: none" ><path d="M 1080.5 1000.5 C 1080.5 1044.68 1044.68 1080.5 1000.5 1080.5 C 956.32 1080.5 920.5 1044.68 920.5 1000.5 C 920.5 956.32 956.32 920.5 1000.5 920.5 C 1044.68 920.5 1080.5 956.32 1080.5 1000.5 Z "/></g>
<g style="fill: rgb(255,255,255); fill-opacity: 1.0; stroke: none" ><path d="M 1075.5 1000.5 C 1075.5 1041.92 1041.92 1075.5 1000.5 1075.5 C 959.08 1075.5 925.5 1041.92 925.5 1000.5 C 925.5 959.08 959.08 925.5 1000.5 925.5 C 1041.92 925.5 1075.5 959.08 1075.5 1000.5 Z "/></g>
<g style="fill: rgb(0,0,0); fill-opacity: 1.0; stroke: none" ><path d="M 1070.5 1000.5 C 1070.5 1039.16 1039.16 1070.5 1000.5 1070.5 C 961.84 1070.5 930.5 1039.16 930.5 1000.5 C 930.5 961.84 961.84 930.5 1000.5 930.5 C 1039.16 930.5 1070.5 961.84 1070.5 1000.5 Z "/></g>
<g style="fill: rgb(255,255,255); fill-opacity: 1.0; stroke: none" ><path d="M 1065.5 1000.5 C 1065.5 1036.4 1036.4 1065.5 1000.5 1065.5 C 964.6 1065.5 935.5 1036.4 935.5 1000.5 C 935.5 964.6 964.6 935.5 1000.5 935.5 C 1036.4 935.5 1065.5 964.6 1065.5 1000.5 Z "/></g>
<g style="fill: rgb(0,0,0); fill-opacity: 1.0; stroke: none" ><path d="M 1060.5 1000.5 C 1060.5 1033.64 1033.64 1060.5 1000.5 1060.5 C 967.36 1060.5 940.5 1033.64 940.5 1000.5 C 940.5 967.36 967.36 940.5 1000.5 940.5 C 1033.64 940.5 1060.5 967.36 1060.5 1000.5 Z "/></g>
<g style="fill: rgb(255,255,255); fill-opacity: 1.0; stroke: none" ><path d="M 1055.5 1000.5 C 1055.5 1030.88 1030.88 1055.5 1000.5 1055.5 C 970.12 1055.5 945.5 1030.88 945.5 1000.5 C 945.5 970.12 970.12 945.5 1000.5 945.5 C 1030.88 945.5 1055.5 970.12 1055.5 1000.5 Z "/></g>
<g style="fill: rgb(0,0,0); fill-opacity: 1.0; stroke: none" ><path d="M 1050.5 1000.5 C 1050.5 1028.11 1028.11 1050.5 1000.5 1050.5 C 972.89 1050.5 950.5 1028.11 950.5 1000.5 C 950.5 972.89 972.89 950.5 1000.5 950.5 C 1028.11 950.5 1050.5 972.89 1050.5 1000.5 Z "/></g>
<g style="fill: rgb(255,255,255); fill-opacity: 1.0; stroke: none" ><path d="M 1045.5 1000.5 C 1045.5 1025.35 1025.35 1045.5 1000.5 1045.5 C 975.65 1045.5 955.5 1025.35 955.5 1000.5 C 955.5 975.65 975.65 955.5 1000.5 955.5 C 1025.35 955.5 1045.5 975.65 1045.5 1000.5 Z "/></g>
<g style="fill: rgb(0,0,0); fill-opacity: 1.0; stroke: none" ><path d="M 1040.5 1000.5 C 1040.5 1022.59 1022.59 1040.5 1000.5 1040.5 C 978.41 1040.5 960.5 1022.59 960.5 1000.5 C 960.5 978.41 978.41 960.5 1000.5 960.5 C 1022.59 960.5 1040.5 978.41 1040.5 1000.5 Z "/></g>
<g style="fill: rgb(255,255,255); fill-opacity: 1.0; stroke: none" ><path d="M 1035.5 1000.5 C 1035.5 1019.83 1019.83 1035.5 1000.5 1035.5 C 981.17 1035.5 965.5 1019.83 965.5 1000.5 C 965.5 981.17 981.17 965.5 1000.5 965.5 C 1019.83 965.5 1035.5 981.17 1035.5 1000.5 Z "/></g>
<g style="fill: rgb(0,0,0); fill-opacity: 1.0; stroke: none" ><path d="M 1030.5 1000.5 C 1030.5 1017.07 1017.07 1030.5 1000.5 1030.5 C 983.93 1030.5 970.5 1017.07 970.5 1000.5 C 970.5 983.93 983.93 970.5 1000.5 970.5 C 1017.07 970.5 1030.5 983.93 1030.5 1000.5 Z "/></g>
<g style="fill: rgb(255,255,255); fill-opacity: 1.0; stroke: none" ><path d="M 1025.5 1000.5 C 1025.5 1014.31 1014.31 1025.5 1000.5 1025.5 C 986.69 1025.5 975.5 1014.31 975.5 1000.5 C 975.5 986.69 986.69 975.5 1000.5 975.5 C 1014.31 975.5 1025.5 986.69 1025.5 1000.5 Z "/></g>
<g style="fill: rgb(0,0,0); fill-opacity: 1.0; stroke: none" ><path d="M 1020.5 1000.5 C 1020.5 1011.55 1011.55 1020.5 1000.5 1020.5 C 989.45 1020.5 980.5 1011.55 980.5 1000.5 C 980.5 989.45 989.45 980.5 1000.5 980.5 C 1011.55 980.5 1020.5 989.45 1020.5 1000.5 Z "/></g>
<g style="fill: rgb(255,255,255); fill-opacity: 1.0; stroke: none" ><path d="M 1015.5 1000.5 C 1015.5 1008.78 1008.78 1015.5 1000.5 1015.5 C 992.22 1015.5 985.5 1008.78 985.5 1000.5 C 985.5 992.22 992.22 985.5 1000.5 985.5 C 1008.78 985.5 1015.5 992.22 1015.5 1000.5 Z "/></g>
<g style="fill: rgb(0,0,0); fill-opacity: 1.0; stroke: none" ><path d="M 1010.5 1000.5 C 1010.5 1006.02 1006.02 1010.5 1000.5 1010.5 C 994.98 1010.5 990.5 1006.02 990.5 1000.5 C 990.5 994.98 994.98 990.5 1000.5 990.5 C 1006.02 990.5 1010.5 994.98 1010.5 1000.5 Z "/></g>
<g style="fill: rgb(255,255,255); fill-opacity: 1.0; stroke: none" ><path d="M 1005.5 1000.5 C 1005.5 1003.26 1003.26 1005.5 1000.5 1005.5 C 997.74 1005.5 995.5 1003.26 995.5 1000.5 C 995.5 997.74 997.74 995.5 1000.5 995.5 C 1003.26 995.5 1005.5 997.74 1005.5 1000.5 Z "/></g>
</svg>
